<?xml version="1.0" encoding="UTF-8"?><svg id="Layer_1" xmlns="http://www.w3.org/2000/svg" viewBox="0 0 701.6 475"><defs><style>.cls-1,.cls-2{fill:#bca475;}.cls-2{fill-rule:evenodd;}</style></defs><g><path class="cls-1" d="M576.59,213.97c-1.69,1.63-3.4,3.2-5.15,4.73l82.38,123.11-31.32-4.19c-10.14-1.35-19.06-7.36-24.15-16.24l-49.15-85.87c-1.95,1.26-3.93,2.48-5.94,3.64l78.84,143.53-31.35-6.32c-10.26-2.07-18.93-8.92-23.32-18.43l-49.17-106.44c-2.16,.9-4.33,1.73-6.53,2.51l51.52,116.81-23.92-4.82c-11.26-2.27-20.52-10.27-24.42-21.09l-30.03-83.47c-2.28,.45-4.58,.86-6.88,1.22l33.24,97.69-17.88-3.61c-12.26-2.48-22.06-11.72-25.25-23.83l-17.11-64.79h-.02c-2.2,.61-4.37,1.26-6.53,1.98l19.83,80.78-12.82-2.58c-13.29-2.68-23.57-13.26-25.88-26.63l-7.09-41.05-12.24,28.42c-1.36,3.16-1.04,6.8,.87,9.67l37.74,56.92c.52,.78,.83,1.69,.89,2.63l.74,10.77,23.78,23.81h55.94v24.44l-11.9-11.94h-13.12l12.47,12.51-13.59,13.61v-13.61l-12.49-12.51h-12.02l-12.49,12.51v10.75l-14.52-14.56,12.61-12.3-22.21-22.24-7.99,.88c-1.26,.14-2.53-.17-3.59-.87l-46.67-31.07,33.54,45.38,53.42,72.25h-22.54c-12.78,0-24.39-7.42-29.78-19.02l-19.59-42.19c-1.85,.86-3.72,1.67-5.61,2.4l31.45,79.37h-10.85c-15.86,0-29.46-11.35-32.31-26.98l-8.49-46.59c-1.85,.33-3.7,.63-5.59,.86l7.1,55.64c1.36,10.69-2.59,21.38-10.59,28.6l-10.03,9.05-10.03-9.05c-8-7.22-11.96-17.9-10.59-28.6l7.1-55.64c-1.89-.22-3.74-.53-5.59-.86l-8.49,46.59c-2.85,15.63-16.44,26.98-32.31,26.98h-10.85l31.45-79.37c-1.89-.73-3.76-1.55-5.61-2.4l-19.59,42.19c-5.39,11.6-17,19.02-29.78,19.02h-22.54l53.42-72.25,33.54-45.36-46.67,31.05c-1.06,.7-2.33,1.01-3.59,.87l-7.99-.88-22.21,22.24,12.61,12.3-14.52,14.56v-10.75l-12.49-12.51h-12.02l-12.49,12.51v13.61l-13.59-13.61,12.47-12.51h-13.12l-11.9,11.94v-24.44h55.94l23.78-23.81,.75-10.77c.07-.94,.37-1.84,.89-2.62l37.74-56.92c1.9-2.87,2.23-6.51,.86-9.67l-12.26-28.44h-.02l-7.09,41.08c-2.31,13.38-12.6,23.97-25.89,26.64l-12.78,2.57,19.83-80.8c-2.16-.71-4.35-1.36-6.55-1.98l-17.11,64.81c-3.2,12.12-13,21.36-25.28,23.83l-17.89,3.6,33.26-97.71c-2.3-.35-4.6-.75-6.88-1.2l-30.04,83.49c-3.89,10.82-13.15,18.82-24.42,21.09l-23.92,4.82,51.5-116.85c-2.2-.77-4.35-1.61-6.51-2.49l-49.17,106.44c-4.4,9.52-13.06,16.36-23.32,18.43l-31.37,6.32,78.88-143.53c-2.01-1.16-3.99-2.38-5.94-3.67l-49.17,85.9c-5.08,8.88-14.01,14.89-24.14,16.24l-31.32,4.19,82.38-123.13c-1.75-1.53-3.48-3.12-5.17-4.73l-46.38,66.79c-5.7,8.21-14.83,13.38-24.8,14.04l-30.79,2.03,83.22-103.53c-1.44-1.83-2.85-3.71-4.21-5.6l-46.17,55.45c-6.24,7.49-15.48,11.83-25.22,11.83H0L147.49,101.05c7.94-8.29,18.92-12.98,30.39-12.98h32.89c8.8,0,15.93,7.14,15.93,15.95v18.6c0,14.99,5,28.8,13.4,39.88,12.02,15.87,31.06,26.09,52.48,26.09,4.77,0,9.42-.51,13.9-1.48,3.58-.77,6.46-3.41,7.43-6.94l11.68-42.34c.16-.75,.18-1.55,.06-2.32-.79-5.13-7.73-8.33-15.52-7.13-6.22,.94-11.09,4.42-12.39,8.39,0,0-3.46-6.74-3.54-11.75-.1-6.49,2.69-10.08,8.95-13.24l10.88-5.11c6.86-6.29,18.02-10.39,30.67-10.39,19.47,0,35.5,9.69,37.55,22.2l.2,1.53,7.87,59.4c.56,4.24,3.83,7.63,8.05,8.32,3.46,.56,7,.86,10.62,.86,21.42,0,40.46-10.22,52.48-26.09,8.4-11.08,13.4-24.89,13.4-39.88v-18.6c0-8.81,7.13-15.95,15.93-15.95h32.89c11.47,0,22.45,4.69,30.39,12.98l147.49,153.9h-30.62c-9.74,0-18.98-4.33-25.22-11.82l-46.19-55.46c-1.34,1.89-2.75,3.77-4.19,5.6l83.19,103.53-30.81-2.03c-9.97-.66-19.09-5.82-24.8-14.03l-46.38-66.77Z"/><polygon class="cls-1" points="331.32 60.15 350.81 45.94 370.3 60.15 362.86 37.18 382.35 22.97 358.26 22.97 350.81 0 343.36 22.97 319.26 22.97 338.77 37.18 331.32 60.15"/><polygon class="cls-1" points="428.73 60.71 441.21 81.37 443.23 57.3 466.69 51.76 444.48 42.42 446.5 18.35 430.75 36.65 408.52 27.3 421.02 47.96 405.27 66.26 428.73 60.71"/><polygon class="cls-1" points="258.4 57.33 260.18 81.42 272.86 60.88 296.27 66.65 280.7 48.21 293.38 27.68 271.08 36.8 255.51 18.35 257.29 42.44 234.98 51.57 258.4 57.33"/></g></svg>