<?xml version="1.0" encoding="UTF-8"?>
<svg version="1.1" xmlns="http://www.w3.org/2000/svg" width="1660" height="1245">
<path d="M0,0 L1660,0 L1660,1245 L0,1245 Z " fill="#FEFEFE" transform="translate(0,0)"/>
<path d="M0,0 L70,0 L88,3 L98,7 L103,11 L110,15 L116,20 L116,22 L120,24 L120,26 L124,28 L131,36 L136,40 L143,48 L162,67 L162,69 L166,71 L178,83 L183,90 L190,96 L190,98 L193,99 L197,103 L202,108 L206,111 L209,116 L219,127 L224,132 L234,142 L234,144 L237,145 L242,150 L250,158 L257,166 L262,172 L267,177 L267,179 L271,180 L276,185 L282,191 L283,194 L288,199 L288,201 L292,203 L297,208 L302,213 L309,221 L309,223 L313,225 L335,247 L342,255 L348,262 L354,267 L361,275 L366,280 L371,284 L379,294 L379,296 L320,296 L308,294 L293,287 L291,282 L285,280 L278,271 L273,266 L263,253 L260,251 L260,248 L257,247 L249,237 L243,230 L232,216 L221,203 L211,190 L207,186 L202,179 L202,177 L198,179 L194,184 L195,188 L200,195 L202,196 L206,203 L211,209 L213,210 L216,216 L216,218 L218,218 L218,220 L221,221 L227,229 L238,243 L248,256 L248,258 L250,258 L258,269 L262,273 L273,287 L280,296 L286,303 L289,306 L292,309 L295,314 L305,327 L305,329 L308,330 L315,340 L320,345 L323,349 L323,351 L327,353 L337,366 L337,369 L310,369 L306,368 L287,367 L274,365 L274,363 L265,362 L265,360 L257,358 L249,353 L241,342 L235,334 L229,326 L229,324 L227,324 L219,311 L218,308 L216,308 L215,304 L211,302 L211,298 L207,296 L204,289 L196,278 L193,273 L189,268 L179,253 L178,249 L175,248 L170,239 L160,225 L160,223 L155,226 L151,230 L152,234 L155,240 L158,243 L166,255 L171,262 L174,267 L181,278 L191,292 L200,306 L203,309 L203,311 L205,311 L208,320 L210,320 L215,329 L222,339 L226,347 L231,352 L237,362 L237,364 L239,364 L249,379 L255,388 L264,401 L266,406 L268,407 L268,409 L270,409 L276,419 L281,425 L285,433 L290,440 L290,443 L294,445 L295,449 L282,449 L280,448 L260,446 L249,443 L234,441 L225,438 L217,434 L216,432 L210,429 L203,422 L203,420 L200,419 L200,416 L197,415 L193,407 L193,405 L190,404 L188,395 L186,395 L183,389 L171,369 L167,362 L167,359 L165,359 L158,346 L156,340 L154,340 L151,334 L141,316 L135,306 L131,298 L131,295 L129,295 L124,286 L124,283 L122,283 L115,272 L111,263 L111,261 L104,265 L101,267 L103,272 L110,284 L116,296 L120,304 L125,314 L133,327 L140,340 L143,347 L154,365 L158,373 L164,383 L165,388 L167,388 L171,396 L172,400 L175,403 L178,410 L179,413 L181,413 L187,425 L190,431 L190,433 L192,433 L197,443 L201,453 L204,456 L206,463 L208,464 L214,475 L218,481 L221,488 L222,491 L224,491 L227,497 L231,506 L238,517 L238,521 L228,520 L215,518 L208,516 L192,512 L173,508 L163,502 L162,500 L155,496 L151,491 L146,486 L144,481 L136,466 L132,457 L129,452 L126,443 L120,431 L113,416 L107,403 L101,389 L98,383 L95,381 L89,364 L81,345 L81,342 L79,342 L74,331 L70,323 L67,315 L67,312 L65,312 L61,304 L58,296 L56,291 L49,291 L49,293 L46,294 L49,304 L53,314 L57,323 L60,328 L66,343 L69,351 L71,355 L73,356 L77,368 L80,376 L83,381 L88,391 L94,406 L99,420 L104,428 L110,445 L115,455 L119,465 L119,468 L121,468 L125,476 L126,483 L128,483 L132,491 L133,499 L117,498 L110,496 L90,493 L85,491 L76,487 L71,485 L71,483 L68,482 L67,480 L62,477 L61,474 L56,469 L50,458 L43,438 L43,435 L41,435 L38,425 L36,420 L36,416 L34,416 L33,410 L31,410 L27,394 L22,381 L17,367 L16,366 L16,357 L14,357 L9,344 L5,335 L2,323 L1,314 L-1,314 L-4,308 L-15,309 L-11,320 L-9,329 L-7,334 L-7,337 L-5,337 L-1,352 L4,367 L6,375 L10,382 L13,394 L22,420 L23,427 L25,427 L27,438 L27,441 L29,441 L36,461 L37,468 L39,468 L39,471 L41,471 L42,481 L29,480 L-3,472 L-12,466 L-12,464 L-17,462 L-18,459 L-21,458 L-26,451 L-26,448 L-28,448 L-32,440 L-36,427 L-41,405 L-47,383 L-49,375 L-54,357 L-56,349 L-61,330 L-62,323 L-63,319 L-73,321 L-73,327 L-72,328 L-69,343 L-64,365 L-61,377 L-59,390 L-57,394 L-56,404 L-54,404 L-53,416 L-51,416 L-48,431 L-44,447 L-41,459 L-41,465 L-50,464 L-66,461 L-66,459 L-72,458 L-81,454 L-90,448 L-90,446 L-94,444 L-97,441 L-97,438 L-100,437 L-104,430 L-104,427 L-106,427 L-110,415 L-112,394 L-114,388 L-119,356 L-122,345 L-124,345 L-125,350 L-130,360 L-133,369 L-137,378 L-140,387 L-142,387 L-143,392 L-143,402 L-140,411 L-138,415 L-133,420 L-125,433 L-122,438 L-120,443 L-118,443 L-110,455 L-109,458 L-104,463 L-98,472 L-95,477 L-95,479 L-93,479 L-88,487 L-88,491 L-84,493 L-84,497 L-81,498 L-80,501 L-76,505 L-72,516 L-71,521 L-70,535 L-67,538 L-67,540 L-62,542 L-55,550 L-47,557 L-36,567 L-31,572 L-30,575 L70,575 L70,616 L66,614 L50,598 L27,597 L34,605 L38,609 L38,611 L42,613 L47,618 L45,622 L26,641 L24,641 L24,617 L20,615 L17,611 L17,609 L13,608 L8,603 L2,598 L-19,598 L-24,601 L-30,606 L-33,610 L-35,610 L-36,613 L-41,617 L-42,637 L-50,631 L-51,628 L-55,626 L-64,618 L-67,614 L-66,610 L-47,591 L-51,585 L-61,576 L-63,571 L-68,569 L-73,565 L-76,560 L-84,553 L-85,552 L-106,552 L-108,551 L-108,549 L-113,547 L-128,537 L-135,533 L-135,531 L-139,530 L-140,528 L-149,523 L-163,514 L-166,512 L-166,510 L-173,508 L-173,506 L-178,504 L-183,502 L-173,516 L-163,530 L-161,531 L-158,536 L-152,545 L-152,547 L-150,547 L-141,561 L-136,566 L-128,577 L-120,589 L-115,594 L-107,605 L-98,617 L-88,631 L-83,639 L-78,644 L-77,647 L-73,651 L-70,655 L-70,657 L-68,657 L-63,665 L-58,670 L-48,684 L-45,688 L-45,692 L-42,692 L-35,702 L-35,705 L-79,705 L-96,701 L-105,696 L-108,694 L-108,692 L-113,690 L-122,680 L-125,676 L-125,673 L-128,672 L-132,663 L-132,659 L-134,659 L-138,647 L-140,641 L-142,641 L-144,636 L-147,628 L-147,625 L-149,625 L-152,620 L-153,614 L-155,614 L-159,600 L-159,596 L-168,599 L-170,600 L-169,607 L-164,617 L-164,620 L-162,620 L-158,632 L-155,642 L-152,649 L-152,652 L-150,652 L-145,666 L-140,681 L-135,691 L-134,698 L-132,698 L-131,705 L-129,705 L-127,716 L-125,716 L-120,730 L-117,737 L-117,741 L-146,741 L-156,739 L-168,733 L-173,728 L-182,718 L-183,713 L-185,713 L-188,705 L-188,701 L-190,701 L-193,691 L-196,674 L-199,653 L-200,652 L-200,645 L-202,645 L-205,625 L-207,615 L-207,611 L-217,612 L-214,631 L-213,632 L-211,655 L-211,663 L-209,663 L-206,693 L-205,695 L-204,708 L-204,730 L-207,739 L-210,744 L-213,751 L-217,755 L-224,763 L-235,773 L-237,776 L-243,776 L-247,772 L-258,764 L-263,759 L-268,752 L-269,747 L-271,747 L-272,742 L-274,742 L-277,729 L-277,710 L-275,686 L-273,677 L-271,660 L-269,648 L-267,621 L-267,612 L-275,612 L-277,622 L-279,637 L-281,645 L-284,669 L-288,685 L-289,692 L-291,692 L-292,701 L-296,710 L-303,721 L-312,730 L-318,734 L-321,734 L-321,736 L-339,741 L-365,741 L-362,730 L-360,723 L-358,723 L-355,714 L-353,707 L-350,698 L-346,687 L-341,676 L-337,668 L-335,661 L-332,652 L-329,647 L-327,647 L-326,639 L-322,628 L-319,620 L-314,608 L-311,600 L-315,599 L-321,596 L-323,602 L-326,610 L-328,610 L-329,615 L-333,625 L-338,634 L-340,640 L-344,649 L-348,656 L-353,668 L-359,679 L-368,689 L-369,692 L-379,698 L-391,704 L-401,705 L-447,705 L-445,700 L-436,687 L-426,674 L-420,665 L-418,665 L-416,660 L-407,648 L-405,645 L-403,645 L-401,641 L-399,637 L-397,637 L-395,632 L-389,624 L-378,609 L-370,598 L-368,598 L-366,593 L-357,581 L-345,565 L-333,548 L-331,545 L-329,545 L-327,540 L-321,532 L-320,530 L-318,530 L-316,525 L-303,508 L-296,498 L-302,502 L-308,506 L-310,506 L-310,508 L-321,515 L-329,521 L-338,526 L-353,536 L-360,541 L-369,546 L-378,552 L-397,552 L-404,559 L-412,566 L-425,579 L-433,586 L-436,589 L-435,593 L-428,600 L-423,603 L-419,608 L-415,611 L-415,614 L-423,621 L-431,628 L-435,633 L-440,636 L-440,617 L-443,616 L-448,611 L-456,604 L-461,598 L-484,598 L-500,614 L-505,618 L-506,641 L-510,640 L-512,636 L-516,633 L-516,631 L-520,629 L-528,622 L-529,618 L-524,612 L-519,608 L-514,603 L-509,597 L-531,598 L-539,606 L-544,610 L-550,617 L-552,617 L-552,576 L-551,575 L-453,575 L-453,573 L-445,566 L-436,558 L-434,555 L-432,555 L-432,553 L-424,546 L-417,540 L-415,540 L-413,536 L-411,534 L-410,515 L-405,503 L-403,500 L-401,500 L-399,494 L-393,485 L-391,485 L-389,479 L-380,466 L-372,455 L-366,448 L-360,436 L-356,430 L-354,430 L-353,426 L-351,425 L-348,418 L-346,418 L-345,414 L-343,414 L-341,409 L-339,404 L-339,395 L-341,388 L-341,384 L-345,382 L-346,375 L-348,375 L-351,364 L-351,361 L-353,361 L-354,354 L-356,354 L-360,343 L-363,356 L-365,371 L-367,380 L-370,400 L-371,401 L-373,418 L-377,428 L-380,436 L-384,438 L-389,445 L-400,453 L-409,457 L-417,460 L-429,463 L-441,464 L-440,458 L-437,439 L-435,439 L-434,430 L-431,417 L-428,405 L-424,387 L-422,387 L-421,376 L-417,358 L-415,358 L-414,345 L-409,332 L-408,322 L-413,320 L-419,319 L-420,325 L-424,341 L-427,353 L-430,361 L-436,387 L-438,387 L-439,398 L-444,417 L-447,430 L-449,435 L-452,444 L-461,457 L-468,464 L-475,468 L-477,471 L-490,476 L-504,478 L-513,480 L-523,480 L-521,470 L-515,452 L-510,435 L-508,435 L-507,429 L-505,429 L-504,419 L-503,414 L-501,414 L-500,408 L-498,404 L-496,395 L-490,378 L-486,365 L-481,349 L-478,340 L-473,325 L-469,316 L-467,309 L-471,309 L-471,307 L-479,307 L-479,312 L-481,312 L-483,322 L-485,322 L-486,330 L-490,342 L-491,347 L-494,349 L-499,364 L-500,369 L-502,369 L-503,376 L-504,380 L-506,380 L-507,388 L-509,388 L-511,399 L-514,408 L-517,414 L-518,419 L-520,419 L-522,430 L-526,443 L-528,449 L-532,457 L-536,464 L-538,464 L-540,469 L-549,479 L-557,485 L-564,490 L-571,493 L-598,497 L-610,499 L-615,499 L-614,493 L-611,487 L-608,478 L-601,464 L-596,452 L-591,441 L-588,431 L-583,421 L-580,416 L-577,408 L-572,397 L-567,384 L-559,369 L-556,359 L-551,350 L-548,342 L-543,331 L-538,318 L-533,309 L-530,301 L-528,295 L-528,293 L-539,290 L-541,297 L-546,307 L-549,314 L-552,322 L-556,329 L-559,337 L-567,353 L-572,363 L-576,373 L-582,385 L-584,385 L-585,393 L-590,405 L-592,405 L-593,410 L-598,422 L-606,438 L-613,453 L-620,469 L-626,481 L-631,488 L-634,493 L-638,497 L-643,500 L-650,505 L-659,509 L-668,512 L-681,514 L-698,517 L-718,521 L-721,521 L-719,516 L-717,511 L-715,510 L-712,503 L-709,502 L-706,491 L-704,491 L-702,484 L-696,473 L-692,466 L-686,456 L-681,446 L-671,428 L-665,417 L-663,413 L-661,413 L-660,409 L-656,400 L-654,400 L-652,394 L-647,386 L-645,380 L-643,380 L-642,376 L-636,366 L-633,359 L-624,342 L-622,342 L-620,336 L-614,324 L-610,316 L-608,316 L-606,311 L-603,304 L-601,304 L-599,296 L-596,291 L-589,279 L-586,273 L-584,272 L-583,266 L-588,264 L-593,261 L-595,266 L-597,271 L-599,271 L-601,276 L-606,285 L-613,297 L-615,304 L-619,308 L-625,319 L-635,336 L-640,345 L-645,353 L-649,360 L-651,365 L-654,371 L-656,371 L-658,377 L-662,385 L-664,385 L-666,390 L-669,397 L-671,397 L-673,402 L-679,412 L-687,423 L-692,428 L-700,434 L-708,438 L-712,438 L-712,440 L-720,443 L-761,447 L-763,448 L-776,448 L-775,444 L-766,430 L-760,421 L-758,421 L-756,415 L-749,405 L-742,396 L-739,392 L-737,392 L-736,386 L-730,377 L-721,363 L-715,356 L-712,350 L-708,346 L-706,341 L-704,340 L-702,335 L-696,326 L-687,313 L-681,303 L-671,289 L-667,283 L-660,272 L-658,272 L-656,266 L-649,256 L-642,245 L-636,237 L-634,233 L-632,233 L-633,229 L-639,224 L-642,223 L-644,228 L-652,239 L-659,248 L-663,255 L-668,263 L-670,263 L-672,268 L-678,277 L-684,285 L-691,295 L-693,299 L-695,299 L-696,305 L-699,308 L-703,315 L-705,319 L-708,320 L-717,333 L-718,335 L-720,335 L-722,340 L-731,350 L-736,355 L-745,360 L-750,363 L-761,366 L-767,366 L-767,368 L-810,370 L-821,370 L-820,366 L-818,365 L-815,360 L-812,358 L-809,353 L-796,337 L-794,334 L-792,334 L-790,330 L-784,322 L-773,308 L-771,308 L-771,306 L-769,305 L-765,298 L-758,290 L-756,287 L-754,287 L-752,282 L-744,273 L-738,265 L-727,252 L-721,244 L-715,237 L-710,232 L-706,225 L-692,208 L-688,202 L-686,202 L-684,197 L-679,193 L-676,188 L-677,183 L-681,179 L-681,177 L-684,177 L-686,181 L-699,197 L-700,199 L-702,199 L-704,203 L-717,219 L-722,226 L-727,231 L-735,241 L-744,251 L-755,265 L-763,274 L-769,281 L-778,288 L-792,294 L-803,296 L-862,296 L-860,292 L-852,283 L-850,283 L-848,279 L-825,256 L-821,252 L-814,244 L-807,237 L-802,231 L-797,227 L-790,219 L-783,212 L-777,205 L-775,205 L-773,201 L-753,181 L-746,173 L-736,163 L-731,157 L-726,152 L-697,123 L-690,115 L-675,100 L-673,100 L-671,95 L-668,94 L-666,90 L-657,81 L-652,76 L-644,67 L-642,67 L-641,64 L-636,59 L-618,41 L-616,38 L-614,38 L-612,34 L-609,31 L-607,31 L-605,27 L-603,27 L-601,23 L-598,20 L-596,20 L-595,17 L-588,12 L-579,7 L-570,3 L-557,1 L-482,1 L-470,7 L-464,15 L-463,20 L-461,20 L-460,73 L-458,89 L-451,109 L-449,111 L-446,119 L-442,124 L-437,132 L-437,134 L-433,136 L-431,140 L-423,147 L-415,154 L-410,158 L-399,164 L-389,169 L-377,173 L-360,177 L-334,177 L-321,175 L-313,172 L-307,164 L-301,143 L-294,118 L-292,109 L-290,103 L-288,93 L-288,82 L-290,75 L-299,73 L-313,73 L-324,74 L-324,76 L-330,80 L-336,85 L-340,75 L-340,58 L-337,51 L-327,42 L-321,40 L-320,38 L-308,33 L-299,27 L-292,23 L-289,23 L-289,21 L-278,18 L-270,16 L-236,16 L-228,17 L-228,19 L-219,20 L-210,24 L-198,32 L-191,38 L-185,57 L-184,62 L-183,76 L-181,83 L-180,100 L-178,110 L-175,128 L-173,148 L-172,149 L-171,165 L-169,165 L-166,171 L-160,175 L-154,177 L-121,177 L-109,174 L-94,171 L-94,169 L-78,161 L-71,156 L-68,155 L-63,150 L-55,143 L-46,133 L-39,122 L-37,122 L-34,113 L-30,105 L-27,96 L-24,89 L-22,72 L-21,21 L-16,11 L-11,6 L-8,3 Z " fill="#BBA671" transform="translate(1071,312)"/>
<path d="M0,0 L2,0 L2,16 L0,41 L6,43 L8,44 L8,46 L15,47 L24,50 L36,55 L36,58 L14,62 L5,65 L-3,68 L-5,93 L-6,108 L-10,108 L-14,98 L-19,91 L-23,84 L-23,81 L-25,81 L-29,74 L-39,75 L-51,78 L-59,80 L-68,81 L-65,76 L-63,75 L-60,70 L-51,59 L-45,52 L-46,45 L-47,42 L-50,41 L-53,34 L-60,22 L-61,19 L-64,18 L-64,14 L-55,17 L-47,20 L-47,22 L-38,24 L-38,26 L-32,27 L-28,29 L-24,29 L-15,17 L-10,12 L-1,1 Z " fill="#B9A675" transform="translate(997,191)"/>
<path d="M0,0 L4,2 L9,7 L15,15 L19,20 L26,28 L31,29 L43,23 L59,16 L66,15 L58,29 L54,36 L46,49 L48,53 L54,61 L58,63 L63,72 L69,79 L69,81 L58,80 L48,76 L36,74 L30,74 L20,91 L12,104 L9,101 L4,67 L-13,64 L-21,61 L-34,58 L-33,55 L-27,52 L-17,48 L-14,48 L-14,46 L-2,42 L3,41 L2,24 L0,7 Z " fill="#BAA677" transform="translate(661,191)"/>
<path d="M0,0 L3,1 L6,9 L8,22 L10,22 L13,34 L14,37 L55,37 L54,40 L45,46 L28,58 L24,62 L25,69 L29,83 L33,96 L33,100 L29,98 L21,93 L21,91 L15,89 L6,81 L3,79 L-2,79 L-3,82 L-9,85 L-26,97 L-29,98 L-31,102 L-33,102 L-32,94 L-28,82 L-26,82 L-25,77 L-21,61 L-25,59 L-34,53 L-47,43 L-53,39 L-53,37 L-12,37 L-8,21 L-2,5 Z " fill="#BAA878" transform="translate(829,160)"/>
<path d="M0,0 L6,2 L6,4 L15,5 L107,6 L107,50 L103,49 L104,47 L106,48 L106,7 L6,7 L1,2 Z " fill="#EBE6D0" transform="translate(1035,880)"/>
<path d="M0,0 L1,4 L-30,35 L-37,43 L-46,52 L-51,54 L-45,47 L-34,36 L-27,28 L-12,13 L-10,13 L-8,8 L-5,7 L-3,3 Z " fill="#BDB18E" transform="translate(408,399)"/>
<path d="M0,0 L21,0 L23,3 L-2,3 L-9,11 L-18,20 L-20,24 L-21,41 L-24,40 L-23,20 L-20,19 L-19,16 L-13,11 L-8,6 L-3,1 Z " fill="#F0EAD3" transform="translate(1052,909)"/>
<path d="M0,0 L2,0 L0,5 L-10,14 L-27,31 L-34,39 L-40,44 L-39,40 L-34,34 L-32,34 L-31,31 L-29,31 L-27,27 L-20,20 L-14,13 L-9,8 L-3,2 L0,2 Z " fill="#F8F5E3" transform="translate(249,562)"/>
<path d="M0,0 L5,4 L5,6 L7,6 L9,13 L9,71 L8,71 L7,63 L7,10 L5,10 L2,4 Z " fill="#EBE4CD" transform="translate(603,322)"/>
<path d="M0,0 L0,3 L-2,7 L-10,18 L-11,20 L23,20 L38,19 L52,14 L54,15 L42,21 L32,22 L-14,22 L-12,17 L-3,4 Z " fill="#C9C0A2" transform="translate(638,995)"/>
<path d="M0,0 L2,0 L1,22 L-2,39 L-4,55 L-5,55 L-4,29 L-1,1 Z " fill="#E9E2CB" transform="translate(802,938)"/>
<path d="M0,0 L5,4 L6,22 L10,20 L11,17 L13,17 L14,14 L22,7 L28,1 L30,2 L22,12 L18,13 L16,17 L11,22 L6,25 L3,24 L2,5 Z " fill="#EFE8CF" transform="translate(626,925)"/>
<path d="M0,0 L2,0 L-1,10 L-4,21 L-7,29 L-9,29 L-10,38 L-11,44 L-13,44 L-14,50 L-15,50 L-15,43 L-12,34 L-8,19 L-5,12 L-3,12 L-4,7 L-1,1 Z " fill="#F2ECD7" transform="translate(577,697)"/>
<path d="M0,0 L1,2 L-5,9 L-7,9 L-9,13 L-16,21 L-27,33 L-36,42 L-41,44 L-35,37 L-29,30 L-24,26 L-17,18 L-10,11 L-4,4 L-2,4 Z " fill="#BEB28E" transform="translate(298,513)"/>
<path d="M0,0 L23,0 L23,1 L1,2 L-6,10 L-20,24 L-21,45 L-24,44 L-22,44 L-22,21 L-7,7 Z " fill="#EEE9D1" transform="translate(587,909)"/>
<path d="M0,0 L2,0 L5,7 L7,20 L9,30 L10,58 L8,55 L7,38 L5,31 L4,17 Z " fill="#DFD7BE" transform="translate(882,357)"/>
<path d="M0,0 L2,0 L3,6 L5,6 L10,20 L11,22 L11,28 L13,28 L18,42 L19,50 L17,48 L16,39 L14,39 L13,32 L11,32 L8,23 L3,12 L0,4 Z " fill="#EAE4CD" transform="translate(926,978)"/>
<path d="M0,0 L2,4 L3,12 L4,13 L6,36 L6,44 L8,44 L9,62 L8,62 L5,49 L4,38 L3,36 L3,20 L1,20 Z " fill="#D3CBAE" transform="translate(854,931)"/>
<path d="M0,0 L0,3 L-5,16 L-8,22 L-11,30 L-14,35 L-19,47 L-20,47 L-19,40 L-17,35 L-14,28 L-13,26 L-11,26 L-12,22 L-10,22 L-9,16 L-7,16 L-6,10 L-2,1 Z " fill="#EBE6CD" transform="translate(501,702)"/>
<path d="M0,0 L9,1 L18,2 L25,5 L21,6 L14,4 L4,4 L-6,15 L-7,17 L-9,17 L-7,12 Z " fill="#EFE9D1" transform="translate(691,264)"/>
<path d="M0,0 L14,3 L58,4 L57,0 L60,1 L60,5 L30,6 L14,7 L1,2 Z " fill="#F1EBD7" transform="translate(978,1013)"/>
<path d="M0,0 L4,4 L4,7 L-40,7 L-49,5 L-45,4 L-25,5 L2,5 Z " fill="#BCAF8C" transform="translate(1032,1010)"/>
<path d="M0,0 L41,0 L41,1 L27,2 L21,3 L9,2 L9,7 L4,5 L0,2 Z " fill="#C0B597" transform="translate(776,197)"/>
<path d="M0,0 L22,0 L20,4 L14,9 L9,15 L7,15 L8,11 L16,4 L17,2 L0,3 L-3,3 Z " fill="#F4F0DA" transform="translate(540,909)"/>
<path d="M0,0 L3,0 L9,7 L8,12 L5,17 L4,15 L5,6 L3,4 L-8,15 L-12,17 L-10,13 Z " fill="#F2EED9" transform="translate(387,489)"/>
<path d="M0,0 L3,1 L0,8 L0,25 L3,34 L10,28 L15,26 L15,24 L20,23 L15,28 L7,35 L2,36 L-2,27 L-2,6 Z " fill="#E8E3CE" transform="translate(732,362)"/>
<path d="M0,0 L1,0 L0,25 L-1,40 L-5,40 L-7,33 L-5,33 L-5,35 L-3,35 L-3,22 L-1,3 Z " fill="#C6BCA0" transform="translate(992,259)"/>
<path d="M0,0 L4,1 L6,4 L6,7 L8,7 L10,16 L9,18 L5,8 L3,7 L2,2 L-4,5 L-3,12 L-1,23 L-3,22 L-6,11 L-8,6 L-8,2 Z " fill="#E7E0C3" transform="translate(1064,619)"/>
<path d="M0,0 L1,2 L-1,10 L-4,12 L-7,23 L-9,26 L-12,35 L-15,39 L-13,30 L-11,22 L-7,14 L-3,5 Z " fill="#EAE4CD" transform="translate(745,949)"/>
<path d="M0,0 L3,0 L0,11 L-6,30 L8,29 L6,31 L1,32 L-8,32 L-6,22 L-5,16 L-3,16 L-2,4 Z " fill="#E7E2CD" transform="translate(554,762)"/>
<path d="M0,0 L1,2 L-1,9 L-6,12 L-8,17 L-10,17 L-11,22 L-15,26 L-18,31 L-21,31 L-19,27 L-17,27 L-15,21 L-10,15 L-7,10 Z " fill="#EFE8D0" transform="translate(420,548)"/>
<path d="M0,0 L8,0 L8,1 L-10,4 L-19,8 L-28,13 L-33,17 L-35,17 L-34,13 L-27,9 L-25,10 L-25,8 L-22,8 L-22,6 L-11,2 Z " fill="#F2EDDA" transform="translate(511,312)"/>
<path d="M0,0 L1,0 L5,29 L8,29 L9,31 L6,36 L3,36 L1,29 L0,13 Z " fill="#F5F0DC" transform="translate(666,263)"/>
<path d="M0,0 L2,0 L2,16 L0,40 L-1,40 L-1,6 L-7,11 L-7,8 Z " fill="#CDC5AB" transform="translate(997,191)"/>
<path d="M0,0 L1,2 L60,1 L69,0 L67,4 L0,3 Z " fill="#E9E3CD" transform="translate(208,606)"/>
<path d="M0,0 L2,0 L2,2 L20,1 L53,1 L53,2 L10,4 L-1,4 Z " fill="#D0C7AE" transform="translate(251,678)"/>
<path d="M0,0 L5,1 L10,6 L10,10 L8,11 L5,16 L4,12 L6,12 L6,5 L1,6 L-7,13 L-7,10 L-1,2 Z " fill="#ECE6CF" transform="translate(429,535)"/>
<path d="M0,0 L3,1 L-6,12 L-17,26 L-21,33 L-23,34 L-21,29 L-19,24 L-17,24 L-16,20 L-8,10 L-2,3 L0,3 Z " fill="#F3EED6" transform="translate(380,515)"/>
<path d="M0,0 L1,0 L1,20 L-8,30 L-15,37 L-19,36 L-9,26 L-5,25 L-3,21 L-1,19 Z " fill="#C2B696" transform="translate(661,827)"/>
<path d="M0,0 L3,0 L2,3 L0,3 L-1,7 L-3,7 L-5,12 L-11,22 L-14,27 L-20,34 L-21,31 L-19,31 L-18,27 L-15,25 L-12,18 L-11,16 L-9,16 L-8,11 Z " fill="#F6F2DD" transform="translate(718,735)"/>
<path d="M0,0 L4,1 L-3,4 L-18,7 L-31,7 L-31,2 L-28,1 L-30,6 L-7,1 Z " fill="#ECE6D0" transform="translate(380,827)"/>
<path d="M0,0 L1,2 L-6,10 L-9,13 L-9,18 L-3,25 L-7,23 L-14,16 L-13,12 L-8,7 L-6,7 L-4,3 Z " fill="#E8E3CF" transform="translate(648,888)"/>
<path d="M0,0 L8,0 L9,1 L9,10 L8,10 L8,2 L2,4 L1,14 L-2,15 L-3,22 L-4,18 L-2,3 Z " fill="#EBE5CC" transform="translate(796,923)"/>
<path d="M0,0 L1,2 L-3,9 L-7,15 L-10,18 L-12,18 L-13,23 L-19,27 L-17,23 L-8,10 L-6,10 L-4,5 Z " fill="#C2B696" transform="translate(748,847)"/>
<path d="M0,0 L6,2 L11,9 L13,10 L13,34 L17,32 L15,36 L12,35 L12,15 L10,15 L7,8 L2,3 Z " fill="#E0D9C4" transform="translate(1082,919)"/>
<path d="M0,0 L2,1 L-4,10 L-13,23 L-16,28 L-18,24 L-10,13 L-8,13 L-6,8 L-4,8 L-4,5 L-2,4 Z " fill="#F7F4DE" transform="translate(400,598)"/>
<path d="M0,0 L22,1 L31,2 L32,3 L37,3 L38,1 L39,5 L26,5 L24,4 L4,2 Z " fill="#D5CCB4" transform="translate(1327,756)"/>
<path d="M0,0 L9,1 L9,2 L3,4 L0,8 L-1,14 L-3,14 L-3,23 L-6,30 L-7,28 L-4,13 Z " fill="#EEE6CE" transform="translate(652,631)"/>
<path d="M0,0 L3,1 L-4,9 L-8,13 L-13,18 L-19,23 L-18,19 L-16,19 L-15,15 L-12,15 L-10,10 L-4,3 Z " fill="#FBF7E5" transform="translate(407,397)"/>
<path d="M0,0 L3,1 L0,3 L-19,3 L-26,10 L-28,10 L-27,6 L-21,1 L-4,1 Z " fill="#BDB091" transform="translate(693,861)"/>
<path d="M0,0 L1,4 L-1,17 L-3,22 L-5,30 L-8,38 L-9,34 L-8,28 L-6,28 L-5,18 Z " fill="#EDE7CF" transform="translate(641,671)"/>
<path d="M0,0 L2,2 L3,15 L3,37 L0,46 L-2,48 L-1,40 L1,34 L1,18 Z " fill="#D9D1B7" transform="translate(864,1005)"/>
<path d="M0,0 L5,0 L7,9 L5,8 L4,3 L-4,4 L-1,19 L-3,18 L-7,9 L-7,4 Z " fill="#E5DEC3" transform="translate(907,908)"/>
<path d="M0,0 L1,2 L0,5 L22,1 L30,1 L30,2 L20,4 L16,6 L-2,7 L-1,1 Z " fill="#E7E0C7" transform="translate(456,806)"/>
<path d="M0,0 L1,2 L-4,16 L-8,32 L-9,32 L-9,25 L-7,13 L-5,11 L-1,1 Z " fill="#B8AB85" transform="translate(645,657)"/>
<path d="M0,0 L0,3 L-4,7 L-13,9 L-22,10 L-50,10 L-50,9 L-24,8 L-11,6 L-3,3 Z " fill="#CCBFA1" transform="translate(761,481)"/>
<path d="M0,0 L1,0 L2,7 L3,8 L6,29 L8,39 L7,43 L4,36 L1,9 L0,8 Z " fill="#E2DCC3" transform="translate(870,957)"/>
<path d="M0,0 L23,0 L29,7 L25,5 L21,3 L4,2 L3,5 L0,2 Z " fill="#F0EAD2" transform="translate(1098,909)"/>
<path d="M0,0 L1,3 L-1,16 L-3,16 L-4,27 L-6,34 L-7,34 L-7,28 L-6,26 L-4,13 L-1,1 Z " fill="#F6F1DB" transform="translate(657,654)"/>
<path d="M0,0 L2,1 L-5,12 L-9,18 L-12,24 L-14,24 L-16,30 L-17,28 L-15,22 L-13,22 L-12,17 L-8,12 L-7,10 L-5,10 L-4,5 L-2,5 L-1,1 Z " fill="#F4F0DC" transform="translate(379,629)"/>
<path d="M0,0 L3,1 L-8,12 L-13,18 L-19,23 L-19,20 L-17,20 L-15,15 L-9,9 L-7,9 L-6,5 L-3,5 L-1,1 Z " fill="#F9F5E2" transform="translate(305,503)"/>
<path d="M0,0 L2,1 L-4,8 L-13,22 L-17,26 L-16,21 L-14,21 L-13,16 L-8,9 L-6,9 L-5,5 Z " fill="#F7F2DD" transform="translate(355,667)"/>
<path d="M0,0 L0,3 L-2,3 L-2,5 L-7,10 L-15,20 L-19,24 L-18,19 L-16,16 L-13,16 L-12,11 L-4,2 Z " fill="#F7F3DE" transform="translate(302,615)"/>
<path d="M0,0 L2,3 L4,14 L5,15 L6,25 L6,42 L5,42 L3,22 L0,4 Z " fill="#EBE5CD" transform="translate(892,418)"/>
<path d="M0,0 L4,1 L3,2 L-8,3 L-18,3 L-18,5 L-37,6 L-36,2 L-35,4 L-22,3 L-20,2 Z " fill="#E7E1CE" transform="translate(330,756)"/>
<path d="M0,0 L2,3 L2,7 L4,7 L4,11 L6,11 L9,20 L12,32 L11,36 L7,23 L3,12 L3,9 L1,9 Z " fill="#E7E0C8" transform="translate(1097,744)"/>
<path d="M0,0 L8,0 L8,2 L12,2 L10,12 L9,8 L10,3 L4,3 L0,8 L-2,14 L-4,14 L-2,5 L0,5 Z " fill="#EDE6CB" transform="translate(592,619)"/>
<path d="M0,0 L1,0 L0,15 L-5,36 L-6,32 L-4,17 L-2,17 L-1,1 Z " fill="#D0C6A9" transform="translate(788,961)"/>
<path d="M0,0 L1,2 L-2,9 L-9,16 L-11,16 L-13,20 L-15,20 L-13,16 L-2,3 Z " fill="#F4F0D9" transform="translate(366,515)"/>
<path d="M0,0 L2,3 L3,10 L-16,10 L-24,9 L-24,8 L1,8 Z " fill="#EDE7D2" transform="translate(953,1045)"/>
<path d="M0,0 L0,3 L-9,13 L-15,18 L-18,17 L-6,5 Z " fill="#EEE7CC" transform="translate(671,866)"/>
<path d="M0,0 L2,1 L-3,6 L-6,9 L-9,10 L-10,16 L-9,24 L-11,20 L-13,16 L-12,9 Z " fill="#EBE4CC" transform="translate(865,211)"/>
<path d="M0,0 L2,0 L2,4 L-15,4 L-30,3 L-31,1 L0,2 Z " fill="#EEE9D5" transform="translate(1408,679)"/>
<path d="M0,0 L2,0 L0,9 L-5,18 L-8,25 L-9,21 L-4,8 Z " fill="#F5F0DB" transform="translate(538,615)"/>
<path d="M0,0 L3,1 L-6,12 L-12,11 L-20,8 L-20,7 L-13,7 L-8,8 L-3,5 Z " fill="#E8DFC4" transform="translate(979,209)"/>
<path d="M0,0 L5,4 L6,22 L9,20 L7,24 L3,24 L2,5 Z " fill="#E5DDC7" transform="translate(626,925)"/>
<path d="M0,0 L1,2 L-2,7 L-11,19 L-16,23 L-14,19 L-12,15 L-10,15 L-8,10 Z " fill="#C2B899" transform="translate(663,962)"/>
<path d="M0,0 L1,2 L-1,6 L-2,25 L-5,27 L-4,9 L-3,2 Z " fill="#F2ECD5" transform="translate(663,821)"/>
<path d="M0,0 L1,2 L-1,7 L-4,16 L-6,21 L-10,27 L-12,27 L-10,22 L-6,14 L-3,4 Z " fill="#F5F1DC" transform="translate(526,616)"/>
<path d="M0,0 L2,1 L0,5 L-2,5 L-4,10 L-10,19 L-15,24 L-14,19 L-11,15 L-9,15 L-7,9 L-5,9 L-3,4 L-1,4 Z " fill="#C1B596" transform="translate(403,570)"/>
<path d="M0,0 L4,1 L-1,2 L-1,4 L-18,7 L-22,6 L-11,3 L-6,1 Z " fill="#E3DCC3" transform="translate(1021,250)"/>
<path d="M0,0 L11,0 L7,3 L0,5 L-12,6 L-10,4 Z " fill="#C3B797" transform="translate(403,819)"/>
<path d="M0,0 L1,2 L-1,2 L-3,6 L-11,19 L-15,25 L-16,21 L-14,20 L-10,11 L-7,7 L-5,7 L-3,2 Z " fill="#F7F3DF" transform="translate(312,731)"/>
<path d="M0,0 L1,0 L1,16 L2,23 L4,23 L5,29 L3,28 L-1,19 L-2,15 L-2,5 Z " fill="#E9E3CA" transform="translate(929,699)"/>
<path d="M0,0 L1,2 L-5,14 L-8,22 L-12,30 L-13,27 L-12,22 L-10,22 L-10,20 L-8,20 L-6,10 L-3,4 L-1,4 Z " fill="#ECE6CF" transform="translate(520,660)"/>
<path d="M0,0 L12,3 L13,4 L33,7 L33,8 L16,7 L9,5 L0,2 Z " fill="#DFD7BF" transform="translate(1292,748)"/>
<path d="M0,0 L5,1 L13,3 L28,5 L28,6 L15,6 L5,4 L0,1 Z " fill="#C5BA99" transform="translate(910,1047)"/>
<path d="M0,0 L1,3 L-14,18 L-17,17 Z " fill="#BFB390" transform="translate(244,570)"/>
<path d="M0,0 L1,0 L0,9 L-2,9 L-3,17 L-5,24 L-8,24 L-6,15 L-4,15 L-3,7 L-1,7 Z " fill="#ECE6CE" transform="translate(568,685)"/>
<path d="M0,0 L2,1 L-6,11 L-13,20 L-15,21 L-14,17 L-12,16 L-11,13 L-9,13 L-9,9 L-6,9 L-5,5 Z " fill="#F7F1DA" transform="translate(335,572)"/>
<path d="M0,0 L2,1 L-5,9 L-14,18 L-15,15 L-12,12 L-10,12 L-8,7 Z " fill="#FBF8E5" transform="translate(335,472)"/>
<path d="M0,0 L2,4 L-9,16 L-12,17 L-10,13 L-8,10 L-6,10 L-4,5 Z " fill="#BBB08A" transform="translate(709,900)"/>
<path d="M0,0 L3,1 L-5,9 L-7,9 L-7,11 L-13,16 L-12,11 L-8,7 L-6,7 L-5,4 Z " fill="#F8F2DF" transform="translate(646,856)"/>
<path d="M0,0 L3,1 L7,9 L10,22 L8,21 L3,9 Z " fill="#E2DBC3" transform="translate(1175,742)"/>
<path d="M0,0 L2,0 L0,4 L-3,7 L-4,10 L-12,15 L-14,14 L-12,11 L-10,11 L-10,9 L-2,2 Z " fill="#B7A985" transform="translate(706,994)"/>
<path d="M0,0 L1,2 L-5,20 L-8,23 L-10,23 L-8,18 L-3,7 Z " fill="#EBE4CB" transform="translate(724,964)"/>
<path d="M0,0 L2,0 L0,6 L-1,8 L-3,8 L-6,17 L-8,21 L-10,21 L-9,15 L-6,14 L-5,8 L-3,4 L-1,4 Z " fill="#F5F2E0" transform="translate(418,704)"/>
<path d="M0,0 L3,1 L-5,8 L-10,11 L-12,12 L-14,10 L-6,4 Z " fill="#F5F0DB" transform="translate(823,242)"/>
<path d="M0,0 L7,0 L5,2 L-10,8 L-15,11 L-17,10 L-15,7 L-6,4 Z " fill="#F7F1DB" transform="translate(711,208)"/>
<path d="M0,0 L3,1 L-3,6 L-33,6 L-33,5 L-5,4 L-3,2 L0,2 Z " fill="#FFFDED" transform="translate(621,880)"/>
<path d="M0,0 L0,3 L-5,6 L-9,8 L-14,8 L-17,10 L-26,11 L-25,9 L-16,7 L-8,4 Z M-10,8 Z " fill="#E2DABE" transform="translate(673,763)"/>
<path d="M0,0 L1,2 L-2,11 L-10,21 L-10,18 L-7,12 L-2,3 Z " fill="#EBE5CB" transform="translate(434,650)"/>
<path d="M0,0 L1,4 L-9,14 L-10,16 L-13,16 L-11,12 L-4,4 L-2,4 Z " fill="#B5AA8C" transform="translate(223,591)"/>
<path d="M0,0 L0,3 L-7,11 L-15,18 L-17,17 Z " fill="#C2B795" transform="translate(316,495)"/>
<path d="M0,0 L2,1 L-3,4 L-7,10 L-12,16 L-14,16 L-12,10 L-8,5 L-3,1 Z " fill="#BBAE8B" transform="translate(1066,314)"/>
<path d="M0,0 L1,0 L1,9 L-2,13 L-2,15 L1,16 L-1,16 L-3,20 L-5,20 L-4,12 Z " fill="#CAC1AA" transform="translate(801,242)"/>
<path d="M0,0 L3,1 L-6,12 L-11,18 L-12,14 L-8,12 L-7,8 L-5,8 L-3,4 L0,3 Z " fill="#F7F1DE" transform="translate(948,244)"/>
<path d="M0,0 L6,2 L13,3 L23,8 L23,10 L19,9 L10,6 L3,4 L3,2 L0,1 Z " fill="#F8F4E1" transform="translate(1002,233)"/>
<path d="M0,0 L14,1 L21,2 L23,0 L24,5 L14,4 L1,2 Z " fill="#C7BEA1" transform="translate(1285,828)"/>
<path d="M0,0 L1,3 L3,3 L4,13 L-9,12 L-17,10 L-13,9 L2,11 L2,4 L0,4 Z " fill="#CCC4A9" transform="translate(1109,780)"/>
<path d="M0,0 L1,4 L-1,8 L-4,11 L-6,16 L-8,16 L-8,18 L-10,18 L-8,12 L-6,9 L-4,9 L-2,3 Z " fill="#C2B797" transform="translate(674,803)"/>
<path d="M0,0 L2,0 L7,12 L9,21 L7,20 L2,8 L0,4 Z " fill="#E4DDC3" transform="translate(1165,718)"/>
<path d="M0,0 L3,1 L-1,5 L-3,9 L-7,12 L-9,16 L-10,12 L-6,6 L-3,5 L-1,1 Z " fill="#F6F1DE" transform="translate(262,662)"/>
<path d="M0,0 L6,0 L3,3 L-6,6 L-6,8 L-15,10 L-14,8 L-11,8 L-11,6 L-6,4 Z " fill="#EFE9D0" transform="translate(983,475)"/>
<path d="M0,0 L6,2 L18,7 L18,10 L10,11 L10,9 L13,9 L13,6 L5,5 L4,3 L0,1 Z " fill="#CCC1A4" transform="translate(1015,239)"/>
<path d="M0,0 L3,0 L6,10 L7,12 L7,21 L5,18 L4,9 L2,9 Z " fill="#EBE7D3" transform="translate(835,173)"/>
<path d="M0,0 L0,3 L-3,9 L-9,14 L-14,15 L-9,10 Z " fill="#ECE7D0" transform="translate(531,780)"/>
<path d="M0,0 L2,1 L6,12 L6,23 L4,19 L2,11 L0,2 Z " fill="#EBE6CD" transform="translate(1010,693)"/>
<path d="M0,0 L1,2 L0,7 L-2,7 L-3,18 L-5,25 L-6,25 L-6,16 L-4,16 L-4,9 L-1,1 Z " fill="#F3EDD5" transform="translate(649,692)"/>
<path d="M0,0 L8,1 L12,3 L11,10 L9,11 L8,4 L1,3 L-1,4 Z " fill="#E8E1C5" transform="translate(532,602)"/>
<path d="M0,0 L1,4 L-4,9 L-10,17 L-14,21 L-16,20 L-7,9 Z " fill="#ECE7D2" transform="translate(347,538)"/>
<path d="M0,0 L4,1 L-6,6 L-9,6 L-10,9 L-14,9 L-12,5 L-1,1 Z " fill="#F6F2DD" transform="translate(760,344)"/>
<path d="M0,0 L6,0 L7,8 L5,8 L5,2 L-1,3 L-2,12 L-4,8 L-4,1 Z " fill="#F1EBD2" transform="translate(858,923)"/>
<path d="M0,0 L5,2 L5,4 L28,4 L30,7 L24,6 L6,6 L0,2 Z " fill="#EEE7D3" transform="translate(958,859)"/>
<path d="M0,0 L16,3 L23,5 L23,6 L15,6 L5,4 L5,2 L0,2 Z " fill="#E7E1CA" transform="translate(1247,820)"/>
<path d="M0,0 L1,4 L-5,12 L-8,15 L-12,21 L-14,20 L-8,11 L-1,3 Z " fill="#B9AC8B" transform="translate(706,757)"/>
<path d="M0,0 L2,1 L-4,13 L-9,22 L-10,22 L-10,17 L-8,17 L-6,10 L-1,2 Z " fill="#F7F2DB" transform="translate(400,736)"/>
<path d="M0,0 L2,0 L0,10 L-3,18 L-4,23 L-6,23 L-4,11 Z " fill="#C7BF9F" transform="translate(584,636)"/>
<path d="M0,0 L1,0 L0,7 L-3,13 L-8,16 L-6,10 Z M-2,10 Z " fill="#EEE8CF" transform="translate(472,583)"/>
<path d="M0,0 L1,4 L0,15 L-2,21 L-5,21 L-3,10 L-1,10 L-1,3 Z " fill="#EBE4CF" transform="translate(783,994)"/>
<path d="M0,0 L4,1 L10,4 L9,10 L6,14 L6,5 L5,4 L-1,4 Z " fill="#EFE9CE" transform="translate(750,908)"/>
<path d="M0,0 L4,1 L7,8 L11,15 L11,20 L8,17 L5,10 Z " fill="#EDE5CD" transform="translate(1281,780)"/>
<path d="M0,0 L1,0 L1,6 L-8,5 L-24,2 L-24,1 L-7,2 L-4,3 L-4,5 L0,5 Z " fill="#CCC3AA" transform="translate(1029,771)"/>
<path d="M0,0 L1,4 L-3,10 L-12,16 L-10,12 L-7,10 L-4,5 Z " fill="#C2B594" transform="translate(266,660)"/>
<path d="M0,0 L2,1 L-4,12 L-7,19 L-8,19 L-8,13 L-4,6 L-2,6 L-1,2 Z " fill="#F7F3DE" transform="translate(442,660)"/>
<path d="M0,0 L2,1 L-2,7 L-8,14 L-9,14 L-9,9 L-3,4 Z " fill="#F8F3DE" transform="translate(346,558)"/>
<path d="M0,0 L3,0 L9,7 L8,12 L5,17 L4,15 L5,6 L3,4 L-1,2 Z " fill="#F0E7CC" transform="translate(387,489)"/>
<path d="M0,0 L3,1 L-11,15 L-12,12 L-7,7 L-5,7 L-3,3 Z " fill="#F8F3DF" transform="translate(448,355)"/>
<path d="M0,0 L2,0 L2,2 L-1,2 L-3,6 L-7,8 L-12,11 L-12,9 L-16,8 L-4,3 Z " fill="#C7BD9E" transform="translate(767,342)"/>
<path d="M0,0 L9,1 L11,3 L15,4 L15,6 L17,6 L17,9 L12,7 L7,4 L0,1 Z " fill="#ECE6D0" transform="translate(852,332)"/>
<path d="M0,0 L1,0 L3,12 L6,12 L7,14 L4,19 L1,19 Z " fill="#D2CBB5" transform="translate(668,280)"/>
<path d="M0,0 L0,3 L-6,10 L-14,14 L-16,14 L-16,12 L-7,7 Z " fill="#EAE3CB" transform="translate(766,1034)"/>
<path d="M0,0 L1,3 L-2,15 L-6,20 L-4,11 L-2,3 Z " fill="#FAF8E4" transform="translate(736,968)"/>
<path d="M0,0 L3,1 L-6,15 L-8,16 L-6,10 L-3,4 Z " fill="#FAF5DC" transform="translate(423,562)"/>
<path d="M0,0 L3,1 L-4,9 L-9,13 L-10,10 L-7,10 L-7,8 L-5,8 L-4,4 Z " fill="#F7F4E1" transform="translate(317,490)"/>
<path d="M0,0 L12,1 L18,5 L18,7 L11,5 L1,2 Z " fill="#F4EFD8" transform="translate(678,479)"/>
<path d="M0,0 L2,0 L2,5 L-4,17 L-6,17 L-3,6 Z " fill="#EEEAD2" transform="translate(479,717)"/>
<path d="M0,0 L2,0 L7,18 L7,25 L6,25 L4,18 L2,8 L0,2 Z " fill="#F7F4E1" transform="translate(1006,675)"/>
<path d="M0,0 L1,0 L1,6 L-6,19 L-7,17 L-4,9 Z " fill="#E8E2CD" transform="translate(945,662)"/>
<path d="M0,0 L3,1 L-6,11 L-10,14 L-10,10 L-6,9 L-6,6 L-4,6 L-3,3 L-1,3 Z " fill="#F6F2DD" transform="translate(378,427)"/>
<path d="M0,0 L0,3 L-7,11 L-10,14 L-13,13 L-6,5 Z " fill="#C1B593" transform="translate(422,385)"/>
<path d="M0,0 L0,3 L-2,10 L-8,14 L-9,16 L-11,15 L-3,4 Z " fill="#C6BC9E" transform="translate(696,917)"/>
<path d="M0,0 L2,0 L-1,9 L-6,21 L-7,21 L-6,14 L-4,9 L-1,2 Z " fill="#F9F5E2" transform="translate(488,728)"/>
<path d="M0,0 L3,3 L4,8 L1,7 L-1,16 L-2,22 L-3,22 L-3,14 Z " fill="#F0EAD1" transform="translate(710,654)"/>
<path d="M0,0 L2,0 L0,5 L-8,11 L-9,8 L-3,2 L0,2 Z " fill="#F3EEDC" transform="translate(249,562)"/>
<path d="M0,0 L4,1 L9,8 L12,9 L13,14 L6,8 L1,3 Z " fill="#EFE9D3" transform="translate(1378,530)"/>
<path d="M0,0 L3,0 L6,6 L4,6 L3,4 L-1,6 L-5,11 L-6,7 Z " fill="#EAE3C5" transform="translate(1270,489)"/>
<path d="M0,0 L1,3 L-9,13 L-13,14 L-7,7 Z " fill="#C0B492" transform="translate(448,358)"/>
<path d="M0,0 L3,1 L-1,3 L-3,7 L-7,14 L-8,14 L-8,9 L-4,3 Z " fill="#F7F3E1" transform="translate(1059,316)"/>
<path d="M0,0 L1,3 L-6,10 L-9,10 L-10,13 L-13,12 Z " fill="#F1EDD8" transform="translate(848,1073)"/>
<path d="M0,0 L0,3 L-2,7 L-10,18 L-13,20 L-11,16 L-1,1 Z " fill="#C1B699" transform="translate(638,995)"/>
<path d="M0,0 L1,0 L1,12 L-1,20 L-3,20 L-1,3 Z " fill="#F1ECD8" transform="translate(791,949)"/>
<path d="M0,0 L4,1 L9,0 L8,2 L-1,4 L-7,6 L-12,6 L-10,4 L-2,3 L-2,1 Z " fill="#B9AD8A" transform="translate(649,769)"/>
<path d="M0,0 L14,1 L28,3 L28,4 L10,4 L3,2 Z " fill="#FAF3DE" transform="translate(1313,755)"/>
<path d="M0,0 L1,2 L0,7 L-6,12 L-7,14 L-9,13 Z M1,4 Z " fill="#EFE9CF" transform="translate(394,720)"/>
<path d="M0,0 L2,1 L-11,12 L-12,9 L-5,3 L-3,3 L-3,1 Z " fill="#F3EFDA" transform="translate(750,385)"/>
<path d="M0,0 L8,0 L6,2 L2,4 L-8,3 L-6,1 Z " fill="#BEB18E" transform="translate(801,328)"/>
<path d="M0,0 L3,1 L6,13 L6,19 L4,16 Z " fill="#EFEAD8" transform="translate(856,237)"/>
<path d="M0,0 L4,4 L4,7 L-20,7 L-20,6 L2,5 Z " fill="#C3BAA0" transform="translate(1032,1010)"/>
<path d="M0,0 L1,2 L-1,12 L-6,16 L-3,7 Z " fill="#EAE2C9" transform="translate(455,770)"/>
<path d="M0,0 L1,0 L1,8 L-3,19 L-4,15 L-1,3 Z " fill="#CAC0A3" transform="translate(644,714)"/>
<path d="M0,0 L4,4 L4,7 L-11,7 L-20,6 L-20,5 L1,5 Z " fill="#BDB090" transform="translate(1404,674)"/>
<path d="M0,0 L1,0 L1,6 L-4,14 L-7,18 L-6,13 Z " fill="#EBE4CD" transform="translate(505,661)"/>
<path d="M0,0 L3,1 L-4,7 L-6,10 L-12,10 L-9,9 L-7,5 L-4,5 L-4,3 L0,2 Z " fill="#BEB392" transform="translate(840,1078)"/>
<path d="M0,0 L3,1 L6,11 L8,12 L9,19 L5,15 L3,9 L3,5 L1,5 Z " fill="#D2C8AB" transform="translate(936,966)"/>
<path d="M0,0 L3,1 L3,3 L7,5 L11,12 L10,14 L9,11 L6,10 L5,7 L0,2 Z " fill="#E7E0C6" transform="translate(987,949)"/>
<path d="M0,0 L2,0 L1,4 L-2,12 L-5,20 L-6,18 L-3,6 Z " fill="#EEE7D1" transform="translate(752,928)"/>
<path d="M0,0 L0,3 L-3,4 L-4,8 L-10,13 L-13,12 L-6,6 L-4,3 L-2,3 L-2,1 Z " fill="#C1B391" transform="translate(641,864)"/>
<path d="M0,0 L0,3 L-5,7 L-10,9 L-11,11 L-14,10 L-8,5 Z " fill="#F1E9D1" transform="translate(755,823)"/>
<path d="M0,0 L1,2 L-1,7 L-5,11 L-7,16 L-9,16 L-8,10 L-6,10 L-6,7 L-4,7 L-4,5 L-2,5 Z " fill="#E8E2CB" transform="translate(363,807)"/>
<path d="M0,0 L1,4 L0,5 L12,5 L10,7 L-3,7 L-2,3 Z " fill="#BEB59C" transform="translate(298,753)"/>
<path d="M0,0 L4,1 L-3,6 L-11,10 L-13,10 L-13,8 L-4,3 Z " fill="#BBAE8D" transform="translate(374,740)"/>
<path d="M0,0 L2,0 L2,4 L4,4 L7,16 L6,20 L0,2 Z " fill="#EAE4CA" transform="translate(1081,698)"/>
<path d="M0,0 L1,4 L-3,12 L-6,16 L-8,16 L-7,12 L-5,12 L-4,7 L-2,5 Z " fill="#F2EED7" transform="translate(422,671)"/>
<path d="M0,0 L3,0 L6,14 L5,18 L1,7 Z " fill="#EFE9D2" transform="translate(1067,655)"/>
<path d="M0,0 L3,1 L7,10 L6,12 L8,12 L9,19 L5,14 L2,4 Z " fill="#BBB18E" transform="translate(1128,605)"/>
<path d="M0,0 L3,0 L3,2 L-8,11 L-8,8 L-2,1 Z " fill="#F4F0E0" transform="translate(430,537)"/>
<path d="M0,0 L1,2 L-4,21 L-5,21 L-6,13 L-2,5 Z " fill="#F1ECD6" transform="translate(778,424)"/>
<path d="M0,0 L2,2 L2,17 L4,20 L0,22 Z " fill="#B8AC8F" transform="translate(1095,931)"/>
<path d="M0,0 L3,3 L3,6 L6,7 L7,13 L9,14 L9,19 L5,14 L4,8 L2,8 Z " fill="#D3CAAB" transform="translate(914,918)"/>
<path d="M0,0 L3,1 L-7,14 L-8,11 L-5,6 L-3,6 L-2,3 L0,3 Z " fill="#F6F0DA" transform="translate(763,823)"/>
<path d="M0,0 L2,1 L-8,6 L-17,7 L-16,5 L-9,4 L-9,2 Z " fill="#D9D2B8" transform="translate(508,799)"/>
<path d="M0,0 L3,0 L4,4 L-1,5 L-5,9 L-6,11 L-7,7 Z " fill="#F1EDD6" transform="translate(1228,535)"/>
<path d="M0,0 L5,0 L1,3 L-8,4 L-8,6 L-13,7 L-12,4 Z " fill="#F5F1DC" transform="translate(790,329)"/>
<path d="M0,0 L1,4 L-2,8 L-4,8 L-5,13 L-8,18 L-10,18 L-8,13 L-1,1 Z " fill="#E9E4CE" transform="translate(720,217)"/>
<path d="M0,0 L2,1 L-2,7 L-8,15 L-9,12 L-4,5 L-2,4 Z " fill="#F5EFD9" transform="translate(728,871)"/>
<path d="M0,0 L1,0 L1,8 L-3,18 L-4,16 Z " fill="#CAC09E" transform="translate(697,722)"/>
<path d="M0,0 L1,2 L0,8 L-4,14 L-6,13 L-4,5 L-2,4 Z " fill="#E5DFC6" transform="translate(491,692)"/>
<path d="M0,0 L2,1 L1,5 L-1,5 L-3,12 L-7,17 L-6,11 L-4,11 L-3,5 Z " fill="#F0EBD6" transform="translate(469,611)"/>
<path d="M0,0 L2,3 L-2,5 L-3,9 L-6,12 L-7,15 L-9,15 L-7,10 Z " fill="#E9E4CB" transform="translate(391,590)"/>
<path d="M0,0 L1,0 L2,7 L0,11 L-1,17 L-4,19 L-3,12 Z " fill="#BFB391" transform="translate(779,421)"/>
<path d="M0,0 L5,0 L1,4 L-6,9 L-5,4 Z " fill="#F6F2DF" transform="translate(741,353)"/>
<path d="M0,0 L2,0 L-1,9 L-4,18 L-5,16 L-2,3 Z " fill="#F2EDD6" transform="translate(723,1001)"/>
<path d="M0,0 L2,3 L2,6 L4,6 L6,10 L6,15 L4,15 L3,9 L1,9 Z " fill="#D1C9AC" transform="translate(1101,713)"/>
<path d="M0,0 L1,4 L-1,13 L-4,19 L-5,15 Z " fill="#CCC4A7" transform="translate(598,637)"/>
<path d="M0,0 L3,1 L1,3 L-9,6 L-16,6 L-15,4 L-4,2 Z " fill="#F6F1DB" transform="translate(756,483)"/>
<path d="M0,0 L1,2 L-2,7 L-6,11 L-9,10 L-3,3 L-1,3 Z " fill="#EEE8D3" transform="translate(530,918)"/>
<path d="M0,0 L3,1 L1,5 L-4,10 L-7,13 L-6,8 L-3,7 L-1,2 Z " fill="#F9F5DD" transform="translate(702,905)"/>
<path d="M0,0 L0,3 L-4,6 L-6,7 L-12,7 L-11,5 L-2,1 Z " fill="#EEE7CF" transform="translate(426,813)"/>
<path d="M0,0 L2,0 L1,5 L-3,15 L-4,15 L-4,9 L-2,9 L-2,4 Z " fill="#ECE6CF" transform="translate(479,749)"/>
<path d="M0,0 L3,1 L5,10 L5,18 L4,18 L3,7 L1,7 Z " fill="#F4F0DD" transform="translate(1017,721)"/>
<path d="M0,0 L0,3 L-3,11 L-7,15 L-6,10 L-2,1 Z " fill="#F6F2DC" transform="translate(501,702)"/>
<path d="M0,0 L1,2 L-1,7 L-5,9 L-6,13 L-8,13 L-6,8 Z " fill="#EFEBD6" transform="translate(361,634)"/>
<path d="M0,0 L1,0 L1,8 L-4,19 L-5,17 Z " fill="#C1B495" transform="translate(769,459)"/>
<path d="M0,0 L1,0 L2,7 L5,12 L5,20 L3,17 L0,8 Z " fill="#DED6BD" transform="translate(612,393)"/>
<path d="M0,0 L2,1 L-1,4 L1,7 L-7,6 L-6,3 Z " fill="#C5BDA5" transform="translate(634,243)"/>
<path d="M0,0 L1,4 L1,10 L6,10 L6,11 L-3,11 Z " fill="#B5A98A" transform="translate(709,1042)"/>
<path d="M0,0 L0,3 L-3,9 L-8,14 L-10,13 L-6,8 Z " fill="#C5BD9F" transform="translate(720,885)"/>
<path d="M0,0 L2,0 L0,5 L-4,8 L-4,6 L-8,7 L-3,2 Z " fill="#EAE2C1" transform="translate(773,810)"/>
<path d="M0,0 L1,2 L-1,9 L-6,13 L-6,10 L-2,4 Z " fill="#EEE8D3" transform="translate(448,786)"/>
<path d="M0,0 L2,1 L2,3 L4,3 L6,9 L7,16 L5,15 L0,2 Z " fill="#D4CAAF" transform="translate(1161,678)"/>
<path d="M0,0 L3,1 L1,4 L-1,4 L-2,7 L-7,11 L-8,8 L-5,5 L-2,5 L-2,2 L0,2 Z " fill="#F7F4E0" transform="translate(273,536)"/>
<path d="M0,0 L3,1 L-2,6 L-8,11 L-7,7 L-5,7 L-4,3 L-1,3 Z " fill="#F1EBD5" transform="translate(396,409)"/>
<path d="M0,0 L2,3 L2,6 L4,6 L7,17 L5,17 L4,11 L2,11 L0,4 Z " fill="#DED6BB" transform="translate(879,1007)"/>
<path d="M0,0 L3,1 L-7,11 L-8,8 L-5,7 L-3,3 Z " fill="#BEB492" transform="translate(578,915)"/>
<path d="M0,0 L1,2 L-3,9 L-8,12 L-8,10 L-6,10 L-4,5 Z " fill="#C9BFA2" transform="translate(748,847)"/>
<path d="M0,0 L2,1 L2,4 L4,4 L4,6 L7,6 L8,14 L6,13 L6,10 L4,10 L0,2 Z " fill="#C3B898" transform="translate(1039,750)"/>
<path d="M0,0 L1,2 L-6,10 L-11,10 L-8,7 L-4,4 L-2,4 Z M-8,10 Z " fill="#EDE5CC" transform="translate(341,660)"/>
<path d="M0,0 L2,1 L-2,7 L-8,12 L-7,7 L-3,6 L-2,2 Z " fill="#F8F4E1" transform="translate(281,639)"/>
<path d="M0,0 L1,2 L-4,7 L-10,11 L-12,10 L-8,8 L-7,5 Z " fill="#C3B796" transform="translate(483,324)"/>
<path d="M0,0 L6,0 L8,2 L-2,3 L-2,9 L-3,9 L-3,1 Z " fill="#BDB08A" transform="translate(856,921)"/>
<path d="M0,0 L0,3 L-7,11 L-8,9 L-6,5 Z M-9,11 Z M-10,12 Z M-11,13 Z " fill="#F6F2DE" transform="translate(671,866)"/>
<path d="M0,0 L1,2 L-2,7 L-8,12 L-10,11 L-6,9 L-4,5 Z " fill="#EAE6D2" transform="translate(688,748)"/>
<path d="M0,0 L3,0 L1,6 L-1,6 L-3,13 L-4,13 L-3,6 L-2,4 L0,4 Z " fill="#F1ECD5" transform="translate(427,686)"/>
<path d="M0,0 L1,2 L0,10 L-2,13 L-5,13 L-3,8 Z M0,8 Z " fill="#E8E1C7" transform="translate(937,681)"/>
<path d="M0,0 L1,4 L-7,11 L-7,8 Z " fill="#C4BA9C" transform="translate(313,602)"/>
<path d="M0,0 L0,3 L-6,14 L-7,11 L-2,1 Z " fill="#F4EED5" transform="translate(480,593)"/>
<path d="M0,0 L3,1 L-4,9 L-10,10 L-7,7 L-3,5 Z " fill="#F2ECD7" transform="translate(979,209)"/>
<path d="M0,0 L9,3 L9,4 L4,4 L3,7 L3,5 L0,4 Z " fill="#C4BDA5" transform="translate(933,205)"/>
<path d="M0,0 L2,0 L1,4 L-9,7 L-6,4 Z " fill="#ECE5CC" transform="translate(704,856)"/>
<path d="M0,0 L13,1 L18,2 L18,3 L6,3 L0,1 Z " fill="#F8F3DD" transform="translate(1286,830)"/>
<path d="M0,0 L2,1 L-5,10 L-8,12 L-7,8 L-5,8 L-3,3 L-1,3 Z " fill="#B6AA85" transform="translate(531,777)"/>
<path d="M0,0 L1,2 L-3,12 L-5,13 L-5,7 L-3,4 L-1,4 Z " fill="#EAE4CF" transform="translate(471,771)"/>
<path d="M0,0 L2,0 L0,4 L-5,12 L-6,8 Z " fill="#FAF7E6" transform="translate(324,711)"/>
<path d="M0,0 L1,0 L1,10 L-1,15 L-3,15 L-1,3 Z " fill="#C3B796" transform="translate(652,681)"/>
<path d="M0,0 L2,0 L2,2 L4,2 L10,12 L9,14 L8,11 L6,11 Z " fill="#EFE9D1" transform="translate(1302,665)"/>
<path d="M0,0 L3,0 L5,5 L-2,4 L-8,8 L-7,5 Z " fill="#EAE3C9" transform="translate(1179,573)"/>
<path d="M0,0 L1,0 L1,8 L-2,15 L-3,11 L-2,3 L0,3 Z " fill="#E4DDC3" transform="translate(1047,393)"/>
<path d="M0,0 L2,0 L0,4 L-6,12 L-7,8 L-3,6 L-2,2 L0,2 Z " fill="#F6F2DE" transform="translate(645,983)"/>
<path d="M0,0 L1,3 L-7,10 L-9,9 Z " fill="#F3ECD7" transform="translate(1111,938)"/>
<path d="M0,0 L2,1 L-6,11 L-9,11 L-5,7 L-2,2 Z " fill="#F4F1DC" transform="translate(654,926)"/>
<path d="M0,0 L4,1 L-8,9 L-8,6 L-2,2 L0,2 Z " fill="#BCB191" transform="translate(729,837)"/>
<path d="M0,0 L2,0 L1,3 L-3,3 L-4,6 L-11,8 L-8,5 Z " fill="#EDE7D1" transform="translate(738,834)"/>
<path d="M0,0 L3,1 L6,9 L5,12 L1,5 Z " fill="#C1B694" transform="translate(1120,765)"/>
<path d="M0,0 L3,0 L0,9 L-2,10 L-2,4 Z " fill="#F6F1DD" transform="translate(554,762)"/>
<path d="M0,0 L1,2 L0,4 L-2,4 L-4,9 L-7,13 L-6,8 L-5,4 L-3,4 L-2,1 Z " fill="#C0B392" transform="translate(402,705)"/>
<path d="M0,0 L3,3 L6,9 L6,15 L4,11 L4,8 L2,8 Z " fill="#C2B79A" transform="translate(713,658)"/>
<path d="M0,0 L4,1 L3,7 L-1,9 Z " fill="#EBE3CC" transform="translate(485,577)"/>
<path d="M0,0 L3,1 L4,4 L9,9 L9,12 L6,9 L6,7 L1,5 Z " fill="#EEE7CD" transform="translate(1328,559)"/>
<path d="M0,0 L5,0 L0,4 L-5,10 L-6,6 L-3,3 L-1,3 Z " fill="#BDB390" transform="translate(1226,534)"/>
<path d="M0,0 L10,1 L14,3 L15,6 L13,6 L13,4 L6,3 L0,1 Z " fill="#F0E8CE" transform="translate(767,384)"/>
<path d="M0,0 L9,0 L16,3 L12,4 L0,1 Z " fill="#DBD5BD" transform="translate(700,266)"/>
<path d="M0,0 L1,3 L1,6 L3,11 L0,10 L-3,6 L-2,2 Z " fill="#C3BAA2" transform="translate(1007,920)"/>
<path d="M0,0 L2,0 L0,4 L-9,7 L-7,4 Z " fill="#EEE6CE" transform="translate(715,849)"/>
<path d="M0,0 L2,1 L0,5 L-2,5 L-4,10 L-6,11 L-5,6 L-3,6 L-3,2 Z " fill="#F7F2DD" transform="translate(753,837)"/>
<path d="M0,0 L9,1 L9,2 L3,4 L0,6 Z " fill="#F5F2DE" transform="translate(652,631)"/>
<path d="M0,0 L3,1 L1,1 L-1,6 L-3,11 L-5,11 L-5,7 L-3,7 L-2,2 L0,2 Z " fill="#C0B591" transform="translate(477,572)"/>
<path d="M0,0 L2,0 L0,4 L-5,11 L-6,7 L-2,2 L0,2 Z " fill="#BBAF8D" transform="translate(426,537)"/>
<path d="M0,0 L1,2 L-6,10 L-8,10 L-6,6 Z " fill="#C6BD9C" transform="translate(352,457)"/>
<path d="M0,0 L1,2 L-5,9 L-7,9 L-7,11 L-9,10 L-7,7 L-5,7 L-3,3 Z " fill="#C7BE9D" transform="translate(462,343)"/>
<path d="M0,0 Z M-2,1 L0,1 L1,15 L-1,11 L-3,7 L-3,2 Z " fill="#F7F2E1" transform="translate(855,220)"/>
<path d="M0,0 L3,1 L2,17 L1,17 Z " fill="#C6BDA7" transform="translate(661,191)"/>
<path d="M0,0 L2,0 L3,6 L5,6 L6,13 L4,11 L0,4 Z " fill="#F2EDD5" transform="translate(926,978)"/>
<path d="M0,0 L1,0 L0,7 L-1,9 L-4,8 L-2,3 Z " fill="#F9F4DF" transform="translate(465,781)"/>
<path d="M0,0 L4,2 L4,4 L8,6 L12,9 L7,8 L5,7 L5,5 L1,4 Z " fill="#EBE5CB" transform="translate(1055,774)"/>
<path d="M0,0 L0,3 L-7,11 L-8,8 L-6,8 L-5,4 Z " fill="#E8E3CF" transform="translate(705,758)"/>
<path d="M0,0 L1,2 L-3,11 L-4,13 L-6,13 L-4,7 Z " fill="#C4B894" transform="translate(402,736)"/>
<path d="M0,0 L1,0 L1,6 L-1,6 L-2,12 L-3,12 L-3,5 L-2,2 L0,2 Z " fill="#E6DFC7" transform="translate(565,735)"/>
<path d="M0,0 L2,1 L-6,12 L-7,8 L-5,8 L-3,4 L-2,2 L0,2 Z " fill="#B6A982" transform="translate(388,726)"/>
<path d="M0,0 L2,0 L2,2 L-1,2 L-2,5 L-12,6 L-10,4 L-3,2 Z " fill="#E6DEC6" transform="translate(326,671)"/>
<path d="M0,0 L5,4 L6,7 L-1,7 Z " fill="#BAB095" transform="translate(1444,600)"/>
<path d="M0,0 L5,1 L9,7 L8,9 L3,3 Z " fill="#F2EAD5" transform="translate(1425,580)"/>
<path d="M0,0 L1,2 L-2,7 L-6,11 L-8,10 L-4,5 Z " fill="#C3B898" transform="translate(350,556)"/>
<path d="M0,0 L3,1 L-5,9 L-6,6 Z " fill="#FAF7E5" transform="translate(257,553)"/>
<path d="M0,0 L1,4 L-7,8 L-10,7 L-7,5 L-1,2 Z " fill="#F6F2E1" transform="translate(661,228)"/>
<path d="M0,0 L3,1 L-1,6 L-1,3 L-8,4 L-4,1 Z " fill="#BBB196" transform="translate(724,206)"/>
<path d="M0,0 L1,2 L1,7 L-3,9 L-4,13 L-5,11 Z " fill="#CDC3A1" transform="translate(730,988)"/>
<path d="M0,0 L5,0 L3,2 L-6,3 L-8,4 L-10,2 L-9,1 Z " fill="#FAF5E0" transform="translate(343,755)"/>
<path d="M0,0 L1,2 L0,5 L-4,7 L-7,10 L-6,5 L-4,3 L-1,3 Z " fill="#C6BB9A" transform="translate(691,743)"/>
<path d="M0,0 L1,0 L1,6 L-2,12 L-3,8 Z " fill="#F8F5DD" transform="translate(600,627)"/>
<path d="M0,0 L1,4 L-3,8 L-6,7 Z " fill="#EFE7CE" transform="translate(330,559)"/>
<path d="M0,0 L7,2 L9,9 L5,5 L2,4 Z " fill="#EBE4CD" transform="translate(1336,487)"/>
<path d="M0,0 L1,2 L-5,9 L-8,8 Z " fill="#C4B897" transform="translate(333,477)"/>
<path d="M0,0 L2,0 L2,2 L-1,3 L-6,8 L-8,6 Z " fill="#E9E2CA" transform="translate(817,246)"/>
<path d="M0,0 L4,0 L4,3 L-7,4 L-7,2 Z " fill="#ECE9DA" transform="translate(725,204)"/>
<path d="M0,0 L1,2 L-3,11 L-4,11 L-4,5 Z " fill="#E8E3CF" transform="translate(716,1024)"/>
<path d="M0,0 L1,2 L-7,7 L-9,6 L-7,3 L-5,3 L-5,1 Z " fill="#D2CBB1" transform="translate(701,1002)"/>
<path d="M0,0 L1,0 L1,9 L-1,13 L-2,13 L-1,3 Z " fill="#FAF7E5" transform="translate(786,981)"/>
<path d="M0,0 L2,0 L0,5 L-5,10 L-4,6 L-3,3 L-1,3 Z " fill="#F9F5E3" transform="translate(735,861)"/>
<path d="M0,0 L2,1 L-1,7 L-3,7 L-4,10 L-5,6 L-3,6 L-2,2 L0,2 Z " fill="#F3EED9" transform="translate(681,790)"/>
<path d="M0,0 L1,2 L-3,14 L-4,14 L-4,7 Z " fill="#C9BFA3" transform="translate(645,657)"/>
<path d="M0,0 L1,2 L-5,9 L-9,10 L-4,4 L-2,4 Z " fill="#C8BE9E" transform="translate(298,513)"/>
<path d="M0,0 L4,2 L10,6 L9,9 L6,7 L6,5 L2,3 Z " fill="#E9E1C9" transform="translate(1181,327)"/>
<path d="M0,0 L13,1 L15,1 L15,4 L1,2 Z " fill="#DED9C8" transform="translate(717,270)"/>
<path d="M0,0 Z M-3,1 L0,1 L-2,5 L-6,8 L-5,3 Z " fill="#BBAD89" transform="translate(680,942)"/>
<path d="M0,0 L4,2 L5,9 L0,9 L3,8 Z " fill="#EFECDE" transform="translate(1306,825)"/>
<path d="M0,0 L2,0 L0,7 L-2,7 L-4,11 L-3,6 L-2,3 L0,3 Z " fill="#F6F2E1" transform="translate(367,796)"/>
<path d="M0,0 L2,1 L-3,6 L-7,8 L-7,6 L-5,6 L-4,2 Z " fill="#BAAE8E" transform="translate(681,754)"/>
<path d="M0,0 L2,4 L-2,10 L-4,10 L-2,5 Z " fill="#C1B494" transform="translate(393,752)"/>
<path d="M0,0 L1,0 L1,8 L-3,10 Z " fill="#F9F5E2" transform="translate(548,742)"/>
<path d="M0,0 L1,2 L0,5 L-2,5 L-4,9 L-5,7 L-3,2 Z " fill="#DDD5BB" transform="translate(334,699)"/>
<path d="M0,0 L3,4 L3,7 L5,7 L5,12 L2,8 L0,5 Z " fill="#DED5B9" transform="translate(1082,662)"/>
<path d="M0,0 L4,1 L4,3 L8,5 L10,8 L6,6 L2,4 Z " fill="#CDC1A2" transform="translate(1318,661)"/>
<path d="M0,0 L2,0 L4,7 L3,11 L0,5 Z " fill="#C8BFA1" transform="translate(1064,649)"/>
<path d="M0,0 L2,0 L0,5 L-3,12 L-4,10 L-1,1 Z " fill="#F5F1D9" transform="translate(456,634)"/>
<path d="M0,0 L1,2 L-1,7 L-4,12 L-5,10 L-1,1 Z " fill="#E2DBBE" transform="translate(526,616)"/>
<path d="M0,0 L6,1 L4,8 L2,4 L2,1 Z " fill="#F5F0D8" transform="translate(538,605)"/>
<path d="M0,0 L1,4 L-4,8 L-6,7 L-4,4 L-2,4 Z " fill="#C2B696" transform="translate(223,591)"/>
<path d="M0,0 L3,1 L7,8 L7,10 L4,9 L0,2 Z " fill="#EFE9CD" transform="translate(1246,560)"/>
<path d="M0,0 L0,3 L-4,9 L-7,8 L-5,5 L-3,5 L-1,1 Z " fill="#ECE7D0" transform="translate(374,506)"/>
<path d="M0,0 L2,1 L-3,6 L-7,5 Z M-4,6 Z " fill="#ECE5D3" transform="translate(807,253)"/>
<path d="M0,0 L5,0 L5,3 L-3,4 L-3,2 L0,2 Z " fill="#BFB8A1" transform="translate(1028,246)"/>
<path d="M0,0 L3,3 L4,11 L1,11 Z " fill="#C1B799" transform="translate(950,1042)"/>
<path d="M0,0 L2,0 L0,9 L-2,11 L-2,5 Z " fill="#EEE8D3" transform="translate(707,1042)"/>
<path d="M0,0 L1,0 L1,6 L-1,10 L-3,10 L-1,1 Z " fill="#E7E0C5" transform="translate(741,927)"/>
<path d="M0,0 L7,6 L5,7 L0,5 Z " fill="#EDE8D1" transform="translate(1131,920)"/>
<path d="M0,0 L1,2 L-4,10 L-6,9 Z " fill="#C5BA9C" transform="translate(698,768)"/>
<path d="M0,0 L4,2 L6,10 L4,9 L4,6 L1,5 Z " fill="#DBD3BA" transform="translate(1275,770)"/>
<path d="M0,0 L1,2 L-2,12 L-3,12 L-3,5 Z " fill="#BFB390" transform="translate(639,677)"/>
<path d="M0,0 L2,1 L-5,10 L-6,8 L-3,3 L-1,3 Z " fill="#BCAF8D" transform="translate(360,633)"/>
<path d="M0,0 L1,2 L-4,11 L-5,9 L-3,3 L-1,3 Z " fill="#C8BD9B" transform="translate(520,628)"/>
<path d="M0,0 L0,3 L-3,8 L-7,10 L-1,1 Z " fill="#C2B693" transform="translate(295,624)"/>
<path d="M0,0 L1,2 L-4,10 L-5,7 L-2,1 Z " fill="#BEB18E" transform="translate(448,624)"/>
<path d="M0,0 L1,2 L0,5 L-5,9 L-3,2 Z " fill="#CBC2A6" transform="translate(456,611)"/>
<path d="M0,0 L2,1 L0,4 L-7,3 L-7,1 Z " fill="#EFE9D1" transform="translate(275,606)"/>
<path d="M0,0 L3,1 L-1,4 L-3,8 L-5,7 L-4,3 Z " fill="#FBF9E9" transform="translate(1177,576)"/>
<path d="M0,0 L3,1 L-3,8 L-4,5 Z " fill="#BBB08D" transform="translate(337,547)"/>
<path d="M0,0 L5,1 L6,8 L5,6 L3,6 Z " fill="#EDE6CB" transform="translate(1284,524)"/>
<path d="M0,0 L3,1 L-4,9 L-5,6 L-2,5 Z " fill="#BBAF8D" transform="translate(380,495)"/>
<path d="M0,0 L3,1 L-4,6 L-6,6 L-6,4 Z " fill="#F9F5E3" transform="translate(995,469)"/>
<path d="M0,0 L3,1 L-3,8 L-4,5 Z " fill="#F8F4DF" transform="translate(1020,447)"/>
<path d="M0,0 L4,1 L4,3 L-9,3 L-7,1 Z " fill="#E2DABD" transform="translate(965,264)"/>
<path d="M0,0 L6,2 L12,5 L10,6 L3,4 L3,2 L0,1 Z " fill="#DCD4BB" transform="translate(1002,233)"/>
<path d="M0,0 L1,2 L-3,10 L-4,7 L-2,1 Z " fill="#E8E2C7" transform="translate(734,978)"/>
<path d="M0,0 L3,0 L7,7 L6,10 L2,4 Z " fill="#F3EDD8" transform="translate(980,939)"/>
<path d="M0,0 L3,1 L-1,6 L-4,7 L-2,3 Z " fill="#C3B894" transform="translate(701,910)"/>
<path d="M0,0 L3,1 L-3,6 L-5,6 L-3,2 L0,2 Z " fill="#F5F1DE" transform="translate(621,880)"/>
<path d="M0,0 L1,0 L0,7 L-1,10 L-4,10 L-2,5 Z " fill="#BCB598" transform="translate(354,823)"/>
<path d="M0,0 L1,2 L-2,12 L-3,12 L-3,5 Z " fill="#F3EED5" transform="translate(587,668)"/>
<path d="M0,0 L1,2 L-2,7 L-6,8 Z " fill="#EAE5CD" transform="translate(348,652)"/>
<path d="M0,0 L2,1 L0,7 L-3,10 L-2,4 Z " fill="#F6F1DD" transform="translate(525,645)"/>
<path d="M0,0 L0,3 L-2,3 L-2,5 L-7,7 L-5,3 Z " fill="#F1EDD7" transform="translate(302,615)"/>
<path d="M0,0 L0,3 L-3,10 L-4,10 L-3,2 Z " fill="#C4B998" transform="translate(530,606)"/>
<path d="M0,0 L3,1 L-3,8 L-4,5 L-2,5 L-1,1 Z " fill="#F8F6E7" transform="translate(315,596)"/>
<path d="M0,0 L2,1 L-2,8 L-4,9 L-3,4 Z " fill="#BAAD8B" transform="translate(392,585)"/>
<path d="M0,0 L1,2 L-1,9 L-3,10 L-2,3 Z " fill="#F3EED8" transform="translate(420,548)"/>
<path d="M0,0 L1,2 L-2,7 L-6,9 L-4,5 Z " fill="#E8E0C2" transform="translate(366,515)"/>
<path d="M0,0 L2,3 L0,8 L-2,10 L-1,1 Z " fill="#C0B595" transform="translate(772,449)"/>
<path d="M0,0 L3,1 L-4,7 L-6,6 Z " fill="#BFB590" transform="translate(363,446)"/>
<path d="M0,0 L2,1 L2,3 L5,4 L5,9 L1,5 Z " fill="#DDD6BC" transform="translate(622,425)"/>
<path d="M0,0 L2,1 L-3,4 L-5,7 L-8,7 L-8,5 L-3,1 Z " fill="#CCC1A5" transform="translate(1066,314)"/>
<path d="M0,0 L1,2 L-2,7 L-6,8 Z " fill="#C4B798" transform="translate(941,256)"/>
<path d="M0,0 L2,0 L0,7 L-2,9 L-2,3 L0,3 Z " fill="#C4B99C" transform="translate(727,954)"/>
<path d="M0,0 L5,1 L7,0 L7,6 L0,1 Z " fill="#B6AE94" transform="translate(1022,943)"/>
<path d="M0,0 L6,2 L9,7 L4,5 Z " fill="#CAC1A6" transform="translate(1082,919)"/>
<path d="M0,0 L2,0 L1,4 L-3,6 L-2,2 Z " fill="#BCAF8C" transform="translate(668,865)"/>
<path d="M0,0 L4,2 L6,6 L5,9 L0,2 Z " fill="#E9E3C9" transform="translate(1300,815)"/>
<path d="M0,0 L1,2 L-2,8 L-4,8 L-4,10 L-6,9 Z " fill="#EFEAD8" transform="translate(616,759)"/>
<path d="M0,0 L1,2 L-2,8 L-4,8 L-3,2 Z " fill="#EFEBD7" transform="translate(412,717)"/>
<path d="M0,0 L0,3 L-3,9 L-6,10 L-4,6 Z " fill="#C7BE9F" transform="translate(374,640)"/>
<path d="M0,0 L3,0 L1,6 L-1,7 Z " fill="#C1B593" transform="translate(511,643)"/>
<path d="M0,0 L1,2 L-1,7 L-5,9 L-4,5 L-2,4 Z " fill="#E9E3C7" transform="translate(380,606)"/>
<path d="M0,0 L2,1 L-2,5 L-8,6 L-5,3 Z " fill="#C5B998" transform="translate(994,472)"/>
<path d="M0,0 L3,1 L-2,7 L-3,3 Z " fill="#F7F4E2" transform="translate(344,462)"/>
<path d="M0,0 L6,0 L2,4 L1,2 L-3,1 Z " fill="#BFB18A" transform="translate(754,349)"/>
<path d="M0,0 L10,0 L9,2 L0,3 Z " fill="#DEDACC" transform="translate(927,271)"/>
<path d="M0,0 L2,0 L3,6 L-1,6 Z " fill="#E3E1D5" transform="translate(862,256)"/>
<path d="M0,0 L1,2 L-4,7 L-4,4 Z " fill="#EEE9D0" transform="translate(858,1062)"/>
<path d="M0,0 L1,0 L1,6 L-2,9 L-1,1 Z " fill="#CCC3A8" transform="translate(864,1044)"/>
<path d="M0,0 L2,0 L0,4 L-4,8 L-3,4 L-2,2 L0,2 Z " fill="#F8F4E3" transform="translate(659,964)"/>
<path d="M0,0 L4,2 L5,8 L3,8 Z " fill="#F3EDD4" transform="translate(1089,926)"/>
<path d="M0,0 L2,0 L0,4 L-4,8 L-4,5 L-2,5 L-1,1 Z " fill="#F7F4E5" transform="translate(691,921)"/>
<path d="M0,0 L1,3 L-4,7 L-6,6 Z " fill="#C7BFA3" transform="translate(1018,909)"/>
<path d="M0,0 Z M-1,1 L-1,4 L-5,6 L-7,5 L-4,2 Z " fill="#BBAE8B" transform="translate(649,858)"/>
<path d="M0,0 L1,2 L0,5 L5,5 L1,7 L-2,7 L-1,1 Z " fill="#DBD5C7" transform="translate(456,806)"/>
<path d="M0,0 L1,2 L-3,7 L-6,6 Z " fill="#F0E9D4" transform="translate(609,769)"/>
<path d="M0,0 L0,3 L-5,8 L-3,2 Z " fill="#C2B594" transform="translate(487,740)"/>
<path d="M0,0 L1,0 L1,5 L-1,10 L-3,9 Z " fill="#C0B490" transform="translate(509,686)"/>
<path d="M0,0 L1,4 L-2,10 L-3,7 L-2,2 L0,2 Z " fill="#F5F1DC" transform="translate(510,680)"/>
<path d="M0,0 L2,4 L1,7 L1,5 L-3,7 L-2,2 L0,2 Z " fill="#F1EACC" transform="translate(949,655)"/>
<path d="M0,0 L2,1 L2,3 L4,3 L5,10 L1,5 Z " fill="#CEC7A8" transform="translate(1132,614)"/>
<path d="M0,0 L0,3 L-5,8 L-7,7 Z " fill="#C5BA9B" transform="translate(264,549)"/>
<path d="M0,0 L2,0 L1,4 L-3,8 L-5,7 L-1,2 Z " fill="#C4B998" transform="translate(383,514)"/>
<path d="M0,0 L3,1 L-1,6 L-3,6 L-4,8 L-4,5 L-2,5 L-1,1 Z " fill="#BBAF8D" transform="translate(372,505)"/>
<path d="M0,0 L3,0 L7,6 L3,4 L-1,2 Z " fill="#EADFBF" transform="translate(387,489)"/>
<path d="M0,0 L0,3 L-4,7 L-7,6 Z " fill="#C0B492" transform="translate(761,481)"/>
<path d="M0,0 L5,1 L7,7 L0,1 Z " fill="#EDE8D1" transform="translate(1324,474)"/>
<path d="M0,0 L3,0 L3,2 L-1,6 L-3,6 L-2,2 Z " fill="#F6F1E1" transform="translate(465,337)"/>
<path d="M0,0 L1,2 L0,9 L-3,7 L-1,1 Z " fill="#ECE5CD" transform="translate(709,235)"/>
</svg>
