<?xml version="1.0" encoding="UTF-8"?>
<svg id="svg1" xmlns="http://www.w3.org/2000/svg" xmlns:svg="http://www.w3.org/2000/svg" xmlns:sodipodi="http://sodipodi.sourceforge.net/DTD/sodipodi-0.dtd" xmlns:inkscape="http://www.inkscape.org/namespaces/inkscape" version="1.1" viewBox="0 0 595.3 595.3">
  <!-- Generator: Adobe Illustrator 29.6.1, SVG Export Plug-In . SVG Version: 2.1.1 Build 9)  -->
  <defs>
    <style>
      .st0 {
        fill: #b8a57b;
      }

      .st1 {
        fill: #002623;
      }
    </style>
  </defs>
  <rect class="st1" y="0" width="595.3" height="595.3"/>
  <g id="layer1" inkscape:groupmode="layer" inkscape:label="Layer 1">
    <g id="g1">
      <path id="path2" class="st0" d="M297.4,109.3l.4.2,5.2,15.9,16.8.2-13.7,10.1,5.4,16.1-.4-.2-9.8-7.1-2.4-1.5c-.1-.7-.7-1-1.8-.9l-13.4,9.8.2-.4,5.1-15.8-13.7-10.1,17-.3,5.2-16Z"/>
      <path id="path3" class="st0" d="M229.5,122.4l11,12.8,15.5-6.2.2.4-5.1,8-2.8,4.6-.7,1.6,10.7,12.8-.4.2-1.5-.6-3.3-.6-11.3-3-8.9,14.6-.6-5.7-.4-7.9-.3-2.1c.2-.9,0-1.4-.4-1.6l-11.3-2.7-4.9-1.3,15.8-6.6-.7-10-.2-6.8Z"/>
      <path id="path4" class="st0" d="M365.9,122.4l.2,2.2c-.4.3-.5.8-.3,1.8l-.4,5.2-.4,7.6,10,4.3,5.5,2.5-10.6,2.5-3.9.9-1.2.3-1,.4-1.3,16.8-8.9-14.6-16.7,3.9,1.6-1.9,6.7-7.9,1.8-2.1c.7-.1.9-.7.7-1.6l-8.6-14,.7-.2,10,4.3,3.1,1.3,2.1.6,11-12.5Z"/>
      <path id="path5" class="st0" d="M172.1,171.8h24.4l2.7.3c3.5.6,6,2.1,7.6,4.6l1.2,2.4.6,2.4.3,4.8v11l.2,4.6.4,2.8.3,1.5c0,1.4.3,2.5.9,3.3,2.6,9.3,7.1,16.7,13.5,22.2,3.3,3.1,7.2,5.7,11.6,7.8,2.5,1.3,5.4,2.3,8.6,3l2.4.6,4.5.6,1.6.2,5.8.2,1.5-.3,2.7-.3,1.2-.3c2.5,0,4.4-.8,5.5-2.2,1-.9,1.6-2.2,1.8-3.9l1.8-6.2,4.6-16.8,1.9-7.6c-.3-1.7-1-2.9-2.2-3.7-2-1.7-5.1-2.3-9.2-1.8l-3.6,1.2c-1.7.6-3,1.6-4,2.8l-1,1.9-1.8-4.2-.6-2.4-.2-4c.5-2.5,1.6-4.3,3.4-5.5l7.9-4,3.1-1.6,3.6-2.7c5.3-3.3,12.3-4.8,21.1-4.5l6.6,1.2c6,1.3,10.7,4,14.2,7.9,2.2,2.2,3.4,5.4,3.6,9.5l1.6,12.4,2.8,21.3.6,5.7c.4.3.6.8.3,1.8.4,1.9,1.3,3.3,2.5,4.3l3.3,1.5c1-.2,1.6-.1,1.8.3l8.6.3,1.5-.3,2.7-.3c3.4-.3,6.5-1.1,9.1-2.2,3.2-1.1,6.1-2.5,8.6-4.2,3.9-2.4,7.4-5.3,10.4-8.6l4-5.2,2.5-4.3,1.2-2.7c2.8-4.9,4.2-11.2,4.2-19v-11.9l.3-3.3c0-1.9.5-3.2,1.5-4.2.6-1.5,1.5-2.6,2.8-3.4,1.2-1.1,2.8-1.8,4.8-2.1l2.7-.3h24.4l1.5.3,3.4.4c5.1,1.1,9.3,3,12.5,6l6.9,6.6,101.5,106-24.9.2c-7-1.3-12.2-4.3-15.6-9.1l-32.3-38.9-2.8,4,59.2,73.8-1.3.2-1.2-.3h-3.6l-1.2-.3h-2.7l-3-.3-6-.3-2.7-.3-4.5-.6c-5.5-1.4-9.7-4-12.6-7.9l-34.1-49-1.6,1-2.1,2.1,58.9,87.8-1,.2-1.2-.3-4.5-.6-12.4-1.6-4.3-.7-3-.6-3.6-1.5c-3.1-1.3-5.6-3.3-7.6-5.8l-4.5-7.1-7-12.4-25.9-45.2-4.3,2.5,56.3,102.4-.7.2-5.1-1.2-13.4-2.7c-7.5-1-13.1-3.9-16.8-8.8l-2.8-4.6-2.2-5.2-6.6-13.7-26.6-57.6-4.6,1.9,36.9,83.1-1.6.2-4.3-1-9.7-1.9c-6.3-1-11.1-3.6-14.4-7.6-2.5-2.8-4.4-6.2-5.5-10.3l-4-11.2-16.5-46-3.3.6-1.6.4,23.8,69.4-1.3.2-11.6-2.4c-5.8-1.4-10.3-4.1-13.5-8.2-2.3-2.6-3.9-5.9-4.8-9.8l-2.4-9.2-9.7-36.2-4.3,1.3.3,1.8,1.2,5.1,2.5,10.3,10,40.6-.4-.2-9.8-1.8c-4.9-1.3-8.9-3.7-11.7-7-2.6-2.7-4.3-6.2-5.4-10.4l-1.2-6.6-3-17-1.3-7-6.2,14.3-1.8,4.2-1.3,4.3c.4.3.6.8.3,1.8.3,1.4.8,2.5,1.8,3.3l3.9,6,14.7,22.2,5.8,8.8,1.6,2.5.7,1.6.3,3.6.3,3c-.2,1.1,0,1.7.4,1.9l.9,1.2,15.3,15,.2.4,40.3.2-.2,17.4-6.2-6.2-1.5-1.5c-.4-.6-1.1-.9-2.1-.9l-1.5.3h-4.2l-.6-.3-1.3.2,8.6,8.9-9.8,9.5v-8.9l-.4-1-1.6-1.6-6.7-6.7-1.5-.3-.9.3h-5.4l-.6-.3-9.4,9.1-.2,7.6-7.6-7.6-1.9-1.9c-.9-.4-1-.8-.3-1.2l1.5-1.5,5.7-5.7,1.3-1-15.9-16.2-1.5.3-4.8.6c-1.4-.3-2.5-.8-3.3-1.8l-6-3.9-25.3-16.7.2.4,61,82.8-19.2.2c-6.5-1.2-11.4-3.9-14.7-8.2-1.6-1.7-2.8-3.8-3.6-6.2l-4.5-9.2-9.1-19.8c-1.7.2-3,.7-4,1.6l22.3,56.6-9.7.2-5.7-1.2c-4.3-1.6-7.9-4-10.6-7.3l-3.3-5.4-1.5-4.5-1.2-6.9-5.2-27.5-3.7.7,3.7,29.9.9,7.1.3,2.4.2,6.4c-.8,4.6-2.4,8.3-4.8,11.3l-4.9,4.9-5.4,4.5-2.2-1.9-.2-.4-7.6-7c-1.4-1.7-2.5-3.8-3.3-6.2-.8-1.3-1.2-2.9-1.3-4.9l-.2-6.4.4-2.5.7-7,.3-1.2.3-2.4,1-8.2,2.2-18.3-3.7-.7-3.6,18.8-1.6,8.5-.3,2.4-.9,4.5c-1.2,5.6-3.8,9.9-7.6,12.9-2.9,2.6-6.7,4.4-11.3,5.4l-2.2.2-9.4.2-.2-.4,22.3-56.3c-1-.9-2.3-1.4-4-1.6l-11.5,24.6-3,6.2c-1.3,3-3.1,5.4-5.5,7.3l-3.4,2.2-2.8,1.3c-1.2.9-2.8,1.4-4.8,1.5l-2.1.3h-17.9l-.2-.4,61.3-82.8-.4-.2-24.3,16.2-6.1,4-1.9,1.3c-.6.6-1.5.9-2.8.7l-2.5-.4-3.1-.2-15.6,15.9,8.9,8.6-10.4,10.1v-5.4c.4-1.3.2-2.2-.4-2.5l-1.6-1.6-6.7-6.7h-5.7l-3-.3-6.7,6.7-1.8,1.8c-.8.4-1,1.4-.6,3l-.2,7.3-7.1-7.1-1.8-1.8c-.9-.4-1-.8-.3-1.2l1.6-1.6,6.6-6.6-.2-.4-1.5.3-.6-.3h-.6l-1.5.3h-3.3l-.6-.3-1,.4-1.8,1.8-6.6,6.2.2-17.4h37.2c2,.4,3.3.1,3.7-1l3.1-3.1,12.9-12.9.3-6,.6-3.3,1.6-2.2,6.1-9.1,14.9-22.6,3.9-5.7c1.3-1.3,2-3.2,2.1-5.7l-3-8-6.4-14.4-1.5,7.8-1.9,11.2-.6,4.2-1.5,7.4c-1.1,4.5-3,8.1-5.8,10.9l-.7.4-.2.4c-3,3-7,4.9-11.9,6l-8.6,1.8-.2-.7.6-1.8.3-1.8,2.1-7.8,7.8-31.6,1.9-7.9,1.3-6.4-4.3-1.3-3,10.7-7,26.6-2.4,8.3c-1.3,5.7-3.9,10-7.9,12.9-3,2.6-7,4.3-11.9,5.1l-11,2.1.2-.4,23.5-69.1-1.3-.4-3.6-.6-16.7,46.1-4,11.2c-1.4,5.2-3.9,9.4-7.6,12.4-3.4,3.1-8,4.9-13.7,5.7l-8.6,1.8-5.4,1.2-.2-.4,36.6-83.1-4.3-1.9-26.5,57.2-7,15.3-2.4,4.8c-1.4,3-3.3,5.4-5.8,7.3-2.2,1.9-5,3.3-8.3,4.2l-6.6,1.5-17.6,3.6-.2-.4,56.3-102.1-4.3-2.5-25.5,44.5-7.8,13.7c-1.8,3.7-4.1,6.8-7,9.4-2.6,2.4-5.9,4-10,4.9l-6.1,1-7.4.9-11,1.5.4-.7,58.4-87.5-2.2-1.9c-.1-.7-.6-1-1.5-.9l-25.2,35.9-6,8.9c-1.7,2.8-3.7,5.2-6.1,7.3l-6.6,3.9-2.5.7-3.7.7-4.5.3-18.2,1.2.2-.4,44.1-55.1,11.2-13.5,3-3.9c.6-.1.8-.6.7-1.3l-2.8-3.7-33.7,40.5-.4.2-.4.7-4.8,3.6-5.5,2.2-3,.6-4.9.2h-19.9l2.2-2.5,49-51.4.4-.2,55.8-58.2c3.3-2.9,7.4-4.9,12.2-6.2l4.2-.6,1.7-.5Z"/>
    </g>
  </g>
</svg>